<svg width="53" height="78" viewBox="0 0 53 78" fill="none" xmlns="http://www.w3.org/2000/svg">
<g filter="url(#filter0_d_995_692885)">
<g clip-path="url(#clip0_995_692885)">
<rect x="4" width="45" height="70" rx="6" fill="url(#paint0_linear_995_692885)"/>
<path d="M12.3828 14.8683H14.3577L13.3703 9.61249L12.3828 14.8683ZM12.5834 17.7813V19.338H9.14282V17.7813H10.2691L12.3983 6.42203H14.3268L16.4714 17.7813H17.5977V19.338H14.1571V17.7813H14.8977L14.6508 16.425H12.0897L11.8428 17.7813H12.5834Z" fill="#C92A2A"/>
<g clip-path="url(#clip1_995_692885)">
<path d="M33.3188 28.8991C30.1057 28.8991 27.3356 30.6777 25.8571 33.2833C24.3774 30.6777 21.6085 28.8991 18.3953 28.8991C13.6393 28.8991 9.78564 32.7488 9.78564 37.5C9.78564 46.9966 23.3258 52.094 25.8571 58.141C28.3872 52.094 41.9285 46.9966 41.9285 37.5C41.9285 32.7488 38.0737 28.8991 33.3188 28.8991Z" fill="#C92A2A"/>
</g>
</g>
<rect x="5" y="1" width="43" height="68" rx="5" stroke="white" stroke-width="2" shape-rendering="crispEdges"/>
</g>
<defs>
<filter id="filter0_d_995_692885" x="0" y="0" width="53" height="78" filterUnits="userSpaceOnUse" color-interpolation-filters="sRGB">
<feFlood flood-opacity="0" result="BackgroundImageFix"/>
<feColorMatrix in="SourceAlpha" type="matrix" values="0 0 0 0 0 0 0 0 0 0 0 0 0 0 0 0 0 0 127 0" result="hardAlpha"/>
<feOffset dy="4"/>
<feGaussianBlur stdDeviation="2"/>
<feComposite in2="hardAlpha" operator="out"/>
<feColorMatrix type="matrix" values="0 0 0 0 0 0 0 0 0 0 0 0 0 0 0 0 0 0 0.25 0"/>
<feBlend mode="normal" in2="BackgroundImageFix" result="effect1_dropShadow_995_692885"/>
<feBlend mode="normal" in="SourceGraphic" in2="effect1_dropShadow_995_692885" result="shape"/>
</filter>
<linearGradient id="paint0_linear_995_692885" x1="-1.06145" y1="1.55071e-07" x2="57.0041" y2="80.9443" gradientUnits="userSpaceOnUse">
<stop stop-color="#F3F3F3"/>
<stop offset="0.440625" stop-color="#F2F9FF"/>
<stop offset="0.440725" stop-color="#E5F2FF"/>
<stop offset="1" stop-color="white"/>
</linearGradient>
<clipPath id="clip0_995_692885">
<rect x="4" width="45" height="70" rx="6" fill="white"/>
</clipPath>
<clipPath id="clip1_995_692885">
<rect width="45" height="44.3119" fill="white" transform="translate(4 25.6881)"/>
</clipPath>
</defs>
</svg>
