<svg width="53" height="78" viewBox="0 0 53 78" fill="none" xmlns="http://www.w3.org/2000/svg">
<g filter="url(#filter0_d_946_732997)">
<g clip-path="url(#clip0_946_732997)">
<rect x="4" width="45" height="70" rx="6" fill="url(#paint0_linear_946_732997)"/>
<mask id="mask0_946_732997" style="mask-type:alpha" maskUnits="userSpaceOnUse" x="4" y="0" width="45" height="70">
<rect x="4" width="45" height="70" rx="5" fill="#D9D9D9"/>
</mask>
<g mask="url(#mask0_946_732997)">
<path d="M9.3175 63.6264H9.92668V62.9903H9.3175V63.6264ZM9.91495 8.97537V8.31441H9.32916V8.97537H9.91495ZM9.91495 10.9277V10.2667H9.32916V10.9277H9.91495ZM9.91495 12.88V12.2184H9.32916V12.88H9.91495ZM9.91495 14.8323V14.1714H9.32916V14.8323H9.91495ZM9.91495 16.7847V16.1237H9.32916V16.7847H9.91495ZM9.91495 18.737V18.0754H9.32916V18.737H9.91495ZM9.91495 20.6893V20.0277H9.32916V20.6893H9.91495ZM9.91495 22.6416V21.9807H9.32916V22.6416H9.91495ZM9.91495 24.594V23.933H9.32916V24.594H9.91495ZM9.91495 26.5456V25.8847H9.32916V26.5456H9.91495ZM9.91495 28.498V27.837H9.32916V28.498H9.91495ZM9.91495 30.4509V29.7893H9.32916V30.4509H9.91495ZM9.91495 32.4026V31.7417H9.32916V32.4026H9.91495ZM9.91495 34.3549V33.694H9.32916V34.3549H9.91495ZM9.91495 36.3073V35.6463H9.32916V36.3073H9.91495ZM9.91495 38.2596V37.5986H9.32916V38.2596H9.91495ZM9.91495 40.2119V39.5503H9.32916V40.2119H9.91495ZM9.91495 42.1642V41.5027H9.32916V42.1642H9.91495ZM9.91495 44.1166V43.455H9.32916V44.1166H9.91495ZM9.91495 46.0683V45.4073H9.32916V46.0683H9.91495ZM9.91495 48.0212V47.3596H9.32916V48.0212H9.91495ZM9.91495 49.9735V49.3119H9.32916V49.9735H9.91495ZM9.91495 51.9252V51.2643H9.32916V51.9252H9.91495ZM9.91495 53.8775V53.2166H9.32916V53.8775H9.91495ZM9.91495 55.8299V55.1689H9.32916V55.8299H9.91495ZM9.91495 57.7822V57.1212H9.32916V57.7822H9.91495ZM9.32916 61.0259V61.6868H9.91495V61.0259H9.32916ZM9.91495 59.7345V59.0736H9.32916V59.7345H9.91495ZM9.3175 7.00968H9.92668V6.37354H9.3175V7.00968ZM11.0865 61.718H41.5477V8.28197H11.0865V61.718ZM11.1744 7.00968H11.7837V6.37354H11.1744V7.00968ZM13.0314 7.00968H13.6406V6.37354H13.0314V7.00968ZM14.8825 7.00968H15.4917V6.37354H14.8825V7.00968ZM16.7394 7.00968H17.3487V6.37354H16.7394V7.00968ZM18.5964 7.00968H19.2056V6.37354H18.5964V7.00968ZM20.4476 7.00968H21.0567V6.37354H20.4476V7.00968ZM22.3045 7.00968H22.9137V6.37354H22.3045V7.00968ZM24.1615 7.00968H24.7706V6.37354H24.1615V7.00968ZM26.0126 7.00968H26.6218V6.37354H26.0126V7.00968ZM27.8695 7.00968H28.4787V6.37354H27.8695V7.00968ZM29.7265 7.00968H30.3357V6.37354H29.7265V7.00968ZM31.5776 7.00968H32.1868V6.37354H31.5776V7.00968ZM33.4345 7.00968H34.0438V6.37354H33.4345V7.00968ZM35.2915 7.00968H35.9007V6.37354H35.2915V7.00968ZM37.1426 7.00968H37.7518V6.37354H37.1426V7.00968ZM38.9995 7.00968H39.6088V6.37354H38.9995V7.00968ZM40.8565 7.00968H41.4657V6.37354H40.8565V7.00968ZM42.7077 63.6264H43.3168V62.9903H42.7077V63.6264ZM43.3051 8.97473V8.31314H42.7193V8.97473H43.3051ZM43.3051 10.9271V10.2655H42.7193V10.9271H43.3051ZM43.3051 12.8794V12.2178H42.7193V12.8794H43.3051ZM43.3051 14.8311V14.1701H42.7193V14.8311H43.3051ZM43.3051 16.7834V16.1224H42.7193V16.7834H43.3051ZM43.3051 18.7357V18.0748H42.7193V18.7357H43.3051ZM43.3051 20.688V20.0271H42.7193V20.688H43.3051ZM43.3051 22.6404V21.9794H42.7193V22.6404H43.3051ZM43.3051 24.5927V23.9317H42.7193V24.5927H43.3051ZM43.3051 26.545V25.8841H42.7193V26.545H43.3051ZM43.3051 28.4973V27.8364H42.7193V28.4973H43.3051ZM43.3051 30.4497V29.7887H42.7193V30.4497H43.3051ZM43.3051 32.402V31.7404H42.7193V32.402H43.3051ZM43.3051 34.3543V33.6927H42.7193V34.3543H43.3051ZM43.3051 36.3066V35.6457H42.7193V36.3066H43.3051ZM43.3051 38.2583V37.5974H42.7193V38.2583H43.3051ZM43.3051 40.2106V39.5497H42.7193V40.2106H43.3051ZM43.3051 42.163V41.502H42.7193V42.163H43.3051ZM43.3051 44.1153V43.4543H42.7193V44.1153H43.3051ZM43.3051 46.0676V45.406H42.7193V46.0676H43.3051ZM43.3051 48.0199V47.359H42.7193V48.0199H43.3051ZM43.3051 49.9723V49.3113H42.7193V49.9723H43.3051ZM43.3051 51.9246V51.263H42.7193V51.9246H43.3051ZM43.3051 53.8769V53.2153H42.7193V53.8769H43.3051ZM43.3051 55.8292V55.1683H42.7193V55.8292H43.3051ZM43.3051 57.7816V57.12H42.7193V57.7816H43.3051ZM42.7193 61.0246V61.6862H43.3051V61.0246H42.7193ZM43.3051 59.7332V59.0723H42.7193V59.7332H43.3051ZM42.7077 7.00968H43.3168V6.37354H42.7077V7.00968ZM41.4657 62.9903H40.8565V63.6264H41.4657V62.9903ZM39.6088 62.9903H38.9995V63.6264H39.6088V62.9903ZM37.7518 62.9903H37.1426V63.6264H37.7518V62.9903ZM35.9007 62.9903H35.2915V63.6264H35.9007V62.9903ZM34.0438 62.9903H33.4345V63.6264H34.0438V62.9903ZM32.1868 62.9903H31.5776V63.6264H32.1868V62.9903ZM30.3357 62.9903H29.7265V63.6264H30.3357V62.9903ZM28.4787 62.9903H27.8695V63.6264H28.4787V62.9903ZM26.6218 62.9903H26.0126V63.6264H26.6218V62.9903ZM24.7706 62.9903H24.1615V63.6264H24.7706V62.9903ZM22.9137 62.9903H22.3045V63.6264H22.9137V62.9903ZM21.0567 62.9903H20.4476V63.6264H21.0567V62.9903ZM19.2056 62.9903H18.5964V63.6264H19.2056V62.9903ZM17.3487 62.9903H16.7394V63.6264H17.3487V62.9903ZM15.4917 62.9903H14.8825V63.6264H15.4917V62.9903ZM13.6406 62.9903H13.0314V63.6264H13.6406V62.9903ZM11.7837 62.9903H11.1744V63.6264H11.7837V62.9903ZM8.15758 5.10125H44.4767V64.8987H8.15758V5.10125ZM45.0625 4.78318L44.7696 4.46511H7.86468L7.57178 4.78318V65.2168L7.86468 65.5349H44.7696L45.0625 65.2168V4.78318ZM47.9914 2.55668V67.4433C47.9914 68.1456 47.4701 68.7156 46.8199 68.7156H5.81441C5.17004 68.7156 4.64282 68.1456 4.64282 67.4433V2.55668C4.64282 1.85501 5.17004 1.28439 5.81441 1.28439H46.8199C47.4701 1.28439 47.9914 1.85501 47.9914 2.55668ZM23.728 28.6506C22.6911 28.6723 21.8944 29.0107 21.3496 29.603C20.8048 30.1952 20.4944 31.0616 20.4709 32.1844C21.1095 31.6246 21.7304 31.1157 22.3338 30.6749C22.7438 30.0184 23.2125 29.3409 23.728 28.6506ZM21.0743 35C22.0233 35.9249 23.0074 36.3232 23.9154 36.3244C24.2024 36.3244 24.4778 36.2812 24.7472 36.2099C24.9699 35.4847 25.3506 34.8441 25.8485 34.327C25.2862 33.9275 24.6301 33.6749 23.9154 33.6749C23.0074 33.6768 22.0233 34.075 21.0743 35ZM12.2581 57.265L12.551 57.5831C13.8456 57.5856 14.8942 58.7231 14.8942 60.1277L15.1871 60.4457H37.4472L37.7401 60.1277C37.7459 58.7231 38.7887 57.5856 40.0832 57.5831L40.3761 57.265V12.735L40.0832 12.4169C38.7887 12.415 37.7459 11.2769 37.7401 9.87233L37.4472 9.55426H15.1871L14.8942 9.87233C14.8942 11.2769 13.8456 12.415 12.551 12.4169L12.2581 12.735V57.265ZM12.551 10.1904C12.551 10.366 12.6857 10.5085 12.8439 10.5085C13.0079 10.5085 13.1368 10.366 13.1368 10.1904C13.1368 10.0155 13.0079 9.87233 12.8439 9.87233C12.6857 9.87233 12.551 10.0155 12.551 10.1904ZM39.4975 10.1904C39.4975 10.366 39.6322 10.5085 39.7904 10.5085C39.9544 10.5085 40.0832 10.366 40.0832 10.1904C40.0832 10.0155 39.9544 9.87233 39.7904 9.87233C39.6322 9.87233 39.4975 10.0155 39.4975 10.1904ZM40.0832 59.8096C40.0832 59.6346 39.9544 59.4915 39.7904 59.4915C39.6322 59.4915 39.4975 59.6346 39.4975 59.8096C39.4975 59.9845 39.6322 60.1277 39.7904 60.1277C39.9544 60.1277 40.0832 59.9845 40.0832 59.8096ZM13.1368 59.8096C13.1368 59.6346 13.0079 59.4915 12.8439 59.4915C12.6857 59.4915 12.551 59.6346 12.551 59.8096C12.551 59.9845 12.6857 60.1277 12.8439 60.1277C13.0079 60.1277 13.1368 59.9845 13.1368 59.8096ZM11.6723 8.91811H40.9619V61.0819H11.6723V8.91811ZM25.0987 32.3905C25.0987 32.701 25.1397 33.0012 25.2042 33.2926C25.872 33.533 26.4636 33.9472 26.9381 34.4917C27.3072 33.8772 27.5415 33.1628 27.5415 32.3905C27.5356 31.4058 27.1724 30.3377 26.3171 29.3071C25.4677 30.3383 25.0987 31.4058 25.0987 32.3905ZM20.5236 32.9535C20.5646 33.4154 20.6526 33.9071 20.7873 34.4332C21.8007 33.4866 22.8903 33.0375 23.9154 33.0388C23.9857 33.0388 24.056 33.0623 24.1263 33.0661L22.5153 31.3174C21.871 31.7951 21.209 32.3339 20.5236 32.9535ZM20.7932 35.5674C20.6526 36.0929 20.5646 36.5853 20.5236 37.0471C21.209 37.6667 21.871 38.2049 22.5153 38.6833L24.1145 36.946C24.0443 36.9491 23.9798 36.9606 23.9154 36.9606C22.8903 36.9619 21.8007 36.5134 20.7932 35.5674ZM25.0987 37.6095C25.0987 38.5942 25.4677 39.6623 26.3171 40.6928C27.1724 39.6623 27.5356 38.5948 27.5356 37.6095C27.5356 37.2996 27.5005 36.9994 27.436 36.708C26.7624 36.4676 26.1766 36.0534 25.6962 35.5089C25.333 36.1234 25.0987 36.8372 25.0987 37.6095ZM20.4709 37.8162C20.4944 38.9384 20.8048 39.8048 21.3496 40.397C21.8944 40.9893 22.6911 41.3277 23.728 41.3493C23.2125 40.6591 22.7438 39.9816 22.3338 39.3258C21.7304 38.8849 21.1095 38.376 20.4709 37.8162ZM30.1248 31.3174L28.5256 33.054C28.59 33.0508 28.6544 33.0394 28.7247 33.0394C29.744 33.0381 30.8336 33.4872 31.847 34.4332C31.9876 33.9071 32.0755 33.4154 32.1165 32.9535C31.4311 32.3339 30.7692 31.7951 30.1248 31.3174ZM28.7247 36.9612C28.6486 36.9612 28.5841 36.9383 28.5139 36.9339L30.1248 38.6833C30.7692 38.2049 31.4311 37.6667 32.1165 37.0471C32.0755 36.5853 31.9876 36.0935 31.847 35.5674C30.8336 36.514 29.744 36.9625 28.7247 36.9612ZM26.7858 35.6737C27.354 36.0725 28.0101 36.3251 28.7247 36.3251C29.6269 36.3238 30.611 35.9249 31.56 35C30.611 34.0757 29.6269 33.6768 28.7247 33.6755C28.4377 33.6755 28.1566 33.7194 27.893 33.79C27.6704 34.5159 27.2896 35.1565 26.7858 35.6737ZM24.5129 37.6095C24.5129 37.5318 24.5364 37.4606 24.5364 37.3843L22.9254 39.133C23.3648 39.8321 23.8627 40.5522 24.4368 41.2946C24.8585 41.2482 25.3154 41.1528 25.7958 41.0039C24.9229 39.904 24.5129 38.7221 24.5129 37.6095ZM26.323 34.7112C26.2293 34.8022 26.1356 34.8963 26.0536 34.9974C26.1356 35.0986 26.2234 35.1978 26.3171 35.2894C26.4109 35.1978 26.4988 35.1043 26.5866 35.0032C26.4988 34.9014 26.4167 34.8028 26.323 34.7112ZM24.5246 32.6043C24.5246 32.533 24.5129 32.4631 24.5129 32.3905C24.5129 31.2779 24.9229 30.096 25.7958 28.9961C25.3154 28.8472 24.8585 28.7524 24.4368 28.7054C23.8627 29.4477 23.3648 30.1685 22.9254 30.8676L24.5246 32.6043ZM27.7289 28.1169C27.2954 27.5743 26.8268 27.024 26.3171 26.4636C25.8075 27.024 25.3448 27.5749 24.9054 28.1169C25.3565 28.1945 25.8251 28.3148 26.3171 28.4878C26.8092 28.3141 27.2779 28.1945 27.7289 28.1169ZM28.1273 32.3905C28.1273 32.4681 28.1038 32.54 28.098 32.6164L29.7089 30.8676C29.2695 30.1685 28.7717 29.4477 28.2034 28.7054C27.7758 28.7518 27.3247 28.8472 26.8385 28.9961C27.7113 30.096 28.1273 31.2779 28.1273 32.3905ZM14.5603 14.3565C14.5603 14.1816 14.4314 14.0384 14.2674 14.0384C14.1093 14.0384 13.9745 14.1816 13.9745 14.3565C13.9745 14.5334 14.1093 14.6746 14.2674 14.6746C14.4314 14.6746 14.5603 14.5334 14.5603 14.3565ZM14.5603 16.9373C14.5603 16.7624 14.4314 16.6193 14.2674 16.6193C14.1093 16.6193 13.9745 16.7624 13.9745 16.9373C13.9745 17.1123 14.1093 17.2554 14.2674 17.2554C14.4314 17.2554 14.5603 17.1123 14.5603 16.9373ZM14.5603 19.5182C14.5603 19.3426 14.4314 19.2001 14.2674 19.2001C14.1093 19.2001 13.9745 19.3426 13.9745 19.5182C13.9745 19.6931 14.1093 19.8362 14.2674 19.8362C14.4314 19.8362 14.5603 19.6931 14.5603 19.5182ZM14.5603 22.0984C14.5603 21.9222 14.4314 21.7803 14.2674 21.7803C14.1093 21.7803 13.9745 21.9222 13.9745 22.0984C13.9745 22.2739 14.1093 22.4164 14.2674 22.4164C14.4314 22.4164 14.5603 22.2739 14.5603 22.0984ZM14.5603 24.6792C14.5603 24.5024 14.4314 24.3611 14.2674 24.3611C14.1093 24.3611 13.9745 24.5024 13.9745 24.6792C13.9745 24.8541 14.1093 24.9973 14.2674 24.9973C14.4314 24.9973 14.5603 24.8541 14.5603 24.6792ZM14.5603 27.2588C14.5603 27.0832 14.4314 26.9407 14.2674 26.9407C14.1093 26.9407 13.9745 27.0832 13.9745 27.2588C13.9745 27.435 14.1093 27.5768 14.2674 27.5768C14.4314 27.5768 14.5603 27.435 14.5603 27.2588ZM14.5603 29.839C14.5603 29.664 14.4314 29.5209 14.2674 29.5209C14.1093 29.5209 13.9745 29.664 13.9745 29.839C13.9745 30.0158 14.1093 30.157 14.2674 30.157C14.4314 30.157 14.5603 30.0158 14.5603 29.839ZM14.5603 32.4198C14.5603 32.2442 14.4314 32.1017 14.2674 32.1017C14.1093 32.1017 13.9745 32.2442 13.9745 32.4198C13.9745 32.596 14.1093 32.7379 14.2674 32.7379C14.4314 32.7379 14.5603 32.596 14.5603 32.4198ZM14.5603 35C14.5603 34.8251 14.4314 34.6819 14.2674 34.6819C14.1093 34.6819 13.9745 34.8251 13.9745 35C13.9745 35.1756 14.1093 35.3181 14.2674 35.3181C14.4314 35.3181 14.5603 35.1756 14.5603 35ZM14.5603 37.5808C14.5603 37.4046 14.4314 37.2628 14.2674 37.2628C14.1093 37.2628 13.9745 37.4046 13.9745 37.5808C13.9745 37.7558 14.1093 37.8989 14.2674 37.8989C14.4314 37.8989 14.5603 37.7558 14.5603 37.5808ZM14.5603 40.161C14.5603 39.9848 14.4314 39.843 14.2674 39.843C14.1093 39.843 13.9745 39.9848 13.9745 40.161C13.9745 40.3366 14.1093 40.4791 14.2674 40.4791C14.4314 40.4791 14.5603 40.3366 14.5603 40.161ZM14.5603 42.7419C14.5603 42.5656 14.4314 42.4238 14.2674 42.4238C14.1093 42.4238 13.9745 42.5656 13.9745 42.7419C13.9745 42.9168 14.1093 43.0599 14.2674 43.0599C14.4314 43.0599 14.5603 42.9168 14.5603 42.7419ZM14.5603 45.3214C14.5603 45.1458 14.4314 45.0033 14.2674 45.0033C14.1093 45.0033 13.9745 45.1458 13.9745 45.3214C13.9745 45.4976 14.1093 45.6395 14.2674 45.6395C14.4314 45.6395 14.5603 45.4976 14.5603 45.3214ZM14.5603 47.9016C14.5603 47.7267 14.4314 47.5835 14.2674 47.5835C14.1093 47.5835 13.9745 47.7267 13.9745 47.9016C13.9745 48.0785 14.1093 48.2197 14.2674 48.2197C14.4314 48.2197 14.5603 48.0785 14.5603 47.9016ZM14.5603 50.4824C14.5603 50.3075 14.4314 50.1644 14.2674 50.1644C14.1093 50.1644 13.9745 50.3075 13.9745 50.4824C13.9745 50.6574 14.1093 50.8005 14.2674 50.8005C14.4314 50.8005 14.5603 50.6574 14.5603 50.4824ZM14.5603 53.0633C14.5603 52.8877 14.4314 52.7452 14.2674 52.7452C14.1093 52.7452 13.9745 52.8877 13.9745 53.0633C13.9745 53.2382 14.1093 53.3814 14.2674 53.3814C14.4314 53.3814 14.5603 53.2382 14.5603 53.0633ZM14.5603 55.6435C14.5603 55.4673 14.4314 55.3254 14.2674 55.3254C14.1093 55.3254 13.9745 55.4673 13.9745 55.6435C13.9745 55.8191 14.1093 55.9616 14.2674 55.9616C14.4314 55.9616 14.5603 55.8191 14.5603 55.6435ZM16.388 58.2243C16.388 58.3993 16.5169 58.5424 16.6809 58.5424C16.839 58.5424 16.9738 58.3993 16.9738 58.2243C16.9738 58.0475 16.839 57.9062 16.6809 57.9062C16.5169 57.9062 16.388 58.0475 16.388 58.2243ZM16.388 55.6435C16.388 55.8191 16.5169 55.9616 16.6809 55.9616C16.839 55.9616 16.9738 55.8191 16.9738 55.6435C16.9738 55.4673 16.839 55.3254 16.6809 55.3254C16.5169 55.3254 16.388 55.4673 16.388 55.6435ZM16.388 53.0633C16.388 53.2382 16.5169 53.3814 16.6809 53.3814C16.839 53.3814 16.9738 53.2382 16.9738 53.0633C16.9738 52.8877 16.839 52.7452 16.6809 52.7452C16.5169 52.7452 16.388 52.8877 16.388 53.0633ZM16.388 50.4824C16.388 50.6574 16.5169 50.8005 16.6809 50.8005C16.839 50.8005 16.9738 50.6574 16.9738 50.4824C16.9738 50.3075 16.839 50.1644 16.6809 50.1644C16.5169 50.1644 16.388 50.3075 16.388 50.4824ZM16.388 47.9016C16.388 48.0785 16.5169 48.2197 16.6809 48.2197C16.839 48.2197 16.9738 48.0785 16.9738 47.9016C16.9738 47.7267 16.839 47.5835 16.6809 47.5835C16.5169 47.5835 16.388 47.7267 16.388 47.9016ZM16.388 45.3214C16.388 45.4976 16.5169 45.6395 16.6809 45.6395C16.839 45.6395 16.9738 45.4976 16.9738 45.3214C16.9738 45.1458 16.839 45.0033 16.6809 45.0033C16.5169 45.0033 16.388 45.1458 16.388 45.3214ZM16.388 42.7419C16.388 42.9168 16.5169 43.0599 16.6809 43.0599C16.839 43.0599 16.9738 42.9168 16.9738 42.7419C16.9738 42.5656 16.839 42.4238 16.6809 42.4238C16.5169 42.4238 16.388 42.5656 16.388 42.7419ZM16.388 40.161C16.388 40.3366 16.5169 40.4791 16.6809 40.4791C16.839 40.4791 16.9738 40.3366 16.9738 40.161C16.9738 39.9848 16.839 39.843 16.6809 39.843C16.5169 39.843 16.388 39.9848 16.388 40.161ZM16.388 37.5808C16.388 37.7558 16.5169 37.8989 16.6809 37.8989C16.839 37.8989 16.9738 37.7558 16.9738 37.5808C16.9738 37.4046 16.839 37.2628 16.6809 37.2628C16.5169 37.2628 16.388 37.4046 16.388 37.5808ZM16.388 35C16.388 35.1756 16.5169 35.3181 16.6809 35.3181C16.839 35.3181 16.9738 35.1756 16.9738 35C16.9738 34.8251 16.839 34.6819 16.6809 34.6819C16.5169 34.6819 16.388 34.8251 16.388 35ZM16.388 32.4198C16.388 32.596 16.5169 32.7379 16.6809 32.7379C16.839 32.7379 16.9738 32.596 16.9738 32.4198C16.9738 32.2442 16.839 32.1017 16.6809 32.1017C16.5169 32.1017 16.388 32.2442 16.388 32.4198ZM16.388 29.839C16.388 30.0158 16.5169 30.157 16.6809 30.157C16.839 30.157 16.9738 30.0158 16.9738 29.839C16.9738 29.664 16.839 29.5209 16.6809 29.5209C16.5169 29.5209 16.388 29.664 16.388 29.839ZM16.388 27.2588C16.388 27.435 16.5169 27.5768 16.6809 27.5768C16.839 27.5768 16.9738 27.435 16.9738 27.2588C16.9738 27.0832 16.839 26.9407 16.6809 26.9407C16.5169 26.9407 16.388 27.0832 16.388 27.2588ZM16.388 24.6792C16.388 24.8541 16.5169 24.9973 16.6809 24.9973C16.839 24.9973 16.9738 24.8541 16.9738 24.6792C16.9738 24.5024 16.839 24.3611 16.6809 24.3611C16.5169 24.3611 16.388 24.5024 16.388 24.6792ZM16.388 22.0984C16.388 22.2739 16.5169 22.4164 16.6809 22.4164C16.839 22.4164 16.9738 22.2739 16.9738 22.0984C16.9738 21.9222 16.839 21.7803 16.6809 21.7803C16.5169 21.7803 16.388 21.9222 16.388 22.0984ZM16.388 19.5182C16.388 19.6931 16.5169 19.8362 16.6809 19.8362C16.839 19.8362 16.9738 19.6931 16.9738 19.5182C16.9738 19.3426 16.839 19.2001 16.6809 19.2001C16.5169 19.2001 16.388 19.3426 16.388 19.5182ZM16.388 16.9373C16.388 17.1123 16.5169 17.2554 16.6809 17.2554C16.839 17.2554 16.9738 17.1123 16.9738 16.9373C16.9738 16.7624 16.839 16.6193 16.6809 16.6193C16.5169 16.6193 16.388 16.7624 16.388 16.9373ZM16.388 14.3565C16.388 14.5334 16.5169 14.6746 16.6809 14.6746C16.839 14.6746 16.9738 14.5334 16.9738 14.3565C16.9738 14.1816 16.839 14.0384 16.6809 14.0384C16.5169 14.0384 16.388 14.1816 16.388 14.3565ZM16.388 11.7763C16.388 11.9525 16.5169 12.0944 16.6809 12.0944C16.839 12.0944 16.9738 11.9525 16.9738 11.7763C16.9738 11.6007 16.839 11.4582 16.6809 11.4582C16.5169 11.4582 16.388 11.6007 16.388 11.7763ZM17.829 35.2252C18.5378 35.9962 19.2349 36.6839 19.9145 37.3136C19.9086 37.4447 19.8793 37.5878 19.8793 37.7144C19.8793 39.0128 20.2425 40.0968 20.9337 40.8468C21.625 41.5993 22.6266 41.995 23.8217 41.9938C23.9388 41.9938 24.0677 41.9639 24.1907 41.9562C24.7706 42.6961 25.4033 43.4505 26.1121 44.2215H26.528C27.2368 43.4505 27.8695 42.6961 28.4494 41.9562C28.5724 41.9632 28.7013 41.9938 28.8185 41.9938C30.0135 41.995 31.0094 41.5993 31.7006 40.8468C32.3977 40.0968 32.7608 39.0128 32.7608 37.7144C32.7608 37.5878 32.7316 37.4441 32.7257 37.3136C33.4053 36.6839 34.1023 35.9962 34.8111 35.2252V34.7754C34.1023 34.0044 33.4053 33.3168 32.7257 32.687C32.7316 32.5559 32.7608 32.4128 32.7608 32.2862C32.7608 30.9872 32.3977 29.9032 31.7006 29.1532C31.0094 28.4006 30.0135 28.005 28.8185 28.0062C28.7013 28.0062 28.5724 28.0368 28.4494 28.0438C27.8695 27.3039 27.2368 26.5495 26.528 25.7785H26.1121C25.4033 26.5495 24.7706 27.3039 24.1907 28.0438C24.0677 28.0368 23.9388 28.0062 23.8217 28.0062C22.6266 28.005 21.625 28.4006 20.9337 29.1532C20.2425 29.9032 19.8793 30.9872 19.8793 32.2862C19.8793 32.4128 19.9086 32.5559 19.9145 32.687C19.2349 33.3168 18.5378 34.0044 17.829 34.7754V35.2252ZM18.7956 32.4198C18.7956 32.596 18.9245 32.7379 19.0885 32.7379C19.2525 32.7379 19.3814 32.596 19.3814 32.4198C19.3814 32.2442 19.2525 32.1017 19.0885 32.1017C18.9245 32.1017 18.7956 32.2442 18.7956 32.4198ZM18.7956 29.839C18.7956 30.0158 18.9245 30.157 19.0885 30.157C19.2525 30.157 19.3814 30.0158 19.3814 29.839C19.3814 29.664 19.2525 29.5209 19.0885 29.5209C18.9245 29.5209 18.7956 29.664 18.7956 29.839ZM18.7956 27.2588C18.7956 27.435 18.9245 27.5768 19.0885 27.5768C19.2525 27.5768 19.3814 27.435 19.3814 27.2588C19.3814 27.0832 19.2525 26.9407 19.0885 26.9407C18.9245 26.9407 18.7956 27.0832 18.7956 27.2588ZM18.7956 24.6792C18.7956 24.8541 18.9245 24.9973 19.0885 24.9973C19.2525 24.9973 19.3814 24.8541 19.3814 24.6792C19.3814 24.5024 19.2525 24.3611 19.0885 24.3611C18.9245 24.3611 18.7956 24.5024 18.7956 24.6792ZM18.7956 22.0984C18.7956 22.2739 18.9245 22.4164 19.0885 22.4164C19.2525 22.4164 19.3814 22.2739 19.3814 22.0984C19.3814 21.9222 19.2525 21.7803 19.0885 21.7803C18.9245 21.7803 18.7956 21.9222 18.7956 22.0984ZM18.7956 19.5182C18.7956 19.6931 18.9245 19.8362 19.0885 19.8362C19.2525 19.8362 19.3814 19.6931 19.3814 19.5182C19.3814 19.3426 19.2525 19.2001 19.0885 19.2001C18.9245 19.2001 18.7956 19.3426 18.7956 19.5182ZM18.7956 16.9373C18.7956 17.1123 18.9245 17.2554 19.0885 17.2554C19.2525 17.2554 19.3814 17.1123 19.3814 16.9373C19.3814 16.7624 19.2525 16.6193 19.0885 16.6193C18.9245 16.6193 18.7956 16.7624 18.7956 16.9373ZM18.7956 14.3565C18.7956 14.5334 18.9245 14.6746 19.0885 14.6746C19.2525 14.6746 19.3814 14.5334 19.3814 14.3565C19.3814 14.1816 19.2525 14.0384 19.0885 14.0384C18.9245 14.0384 18.7956 14.1816 18.7956 14.3565ZM18.7956 11.7763C18.7956 11.9525 18.9245 12.0944 19.0885 12.0944C19.2525 12.0944 19.3814 11.9525 19.3814 11.7763C19.3814 11.6007 19.2525 11.4582 19.0885 11.4582C18.9245 11.4582 18.7956 11.6007 18.7956 11.7763ZM21.2032 27.2588C21.2032 27.435 21.3379 27.5768 21.4961 27.5768C21.6601 27.5768 21.789 27.435 21.789 27.2588C21.789 27.0832 21.6601 26.9407 21.4961 26.9407C21.3379 26.9407 21.2032 27.0832 21.2032 27.2588ZM21.2032 24.6792C21.2032 24.8541 21.3379 24.9973 21.4961 24.9973C21.6601 24.9973 21.789 24.8541 21.789 24.6792C21.789 24.5024 21.6601 24.3611 21.4961 24.3611C21.3379 24.3611 21.2032 24.5024 21.2032 24.6792ZM21.2032 22.0984C21.2032 22.2739 21.3379 22.4164 21.4961 22.4164C21.6601 22.4164 21.789 22.2739 21.789 22.0984C21.789 21.9222 21.6601 21.7803 21.4961 21.7803C21.3379 21.7803 21.2032 21.9222 21.2032 22.0984ZM21.2032 19.5182C21.2032 19.6931 21.3379 19.8362 21.4961 19.8362C21.6601 19.8362 21.789 19.6931 21.789 19.5182C21.789 19.3426 21.6601 19.2001 21.4961 19.2001C21.3379 19.2001 21.2032 19.3426 21.2032 19.5182ZM21.2032 16.9373C21.2032 17.1123 21.3379 17.2554 21.4961 17.2554C21.6601 17.2554 21.789 17.1123 21.789 16.9373C21.789 16.7624 21.6601 16.6193 21.4961 16.6193C21.3379 16.6193 21.2032 16.7624 21.2032 16.9373ZM21.2032 14.3565C21.2032 14.5334 21.3379 14.6746 21.4961 14.6746C21.6601 14.6746 21.789 14.5334 21.789 14.3565C21.789 14.1816 21.6601 14.0384 21.4961 14.0384C21.3379 14.0384 21.2032 14.1816 21.2032 14.3565ZM21.2032 11.7763C21.2032 11.9525 21.3379 12.0944 21.4961 12.0944C21.6601 12.0944 21.789 11.9525 21.789 11.7763C21.789 11.6007 21.6601 11.4582 21.4961 11.4582C21.3379 11.4582 21.2032 11.6007 21.2032 11.7763ZM23.6166 27.2588C23.6166 27.435 23.7455 27.5768 23.9095 27.5768C24.0677 27.5768 24.2024 27.435 24.2024 27.2588C24.2024 27.0832 24.0677 26.9407 23.9095 26.9407C23.7455 26.9407 23.6166 27.0832 23.6166 27.2588ZM23.6166 24.6792C23.6166 24.8541 23.7455 24.9973 23.9095 24.9973C24.0677 24.9973 24.2024 24.8541 24.2024 24.6792C24.2024 24.5024 24.0677 24.3611 23.9095 24.3611C23.7455 24.3611 23.6166 24.5024 23.6166 24.6792ZM23.6166 22.0984C23.6166 22.2739 23.7455 22.4164 23.9095 22.4164C24.0677 22.4164 24.2024 22.2739 24.2024 22.0984C24.2024 21.9222 24.0677 21.7803 23.9095 21.7803C23.7455 21.7803 23.6166 21.9222 23.6166 22.0984ZM23.6166 19.5182C23.6166 19.6931 23.7455 19.8362 23.9095 19.8362C24.0677 19.8362 24.2024 19.6931 24.2024 19.5182C24.2024 19.3426 24.0677 19.2001 23.9095 19.2001C23.7455 19.2001 23.6166 19.3426 23.6166 19.5182ZM23.6166 16.9373C23.6166 17.1123 23.7455 17.2554 23.9095 17.2554C24.0677 17.2554 24.2024 17.1123 24.2024 16.9373C24.2024 16.7624 24.0677 16.6193 23.9095 16.6193C23.7455 16.6193 23.6166 16.7624 23.6166 16.9373ZM23.6166 14.3565C23.6166 14.5334 23.7455 14.6746 23.9095 14.6746C24.0677 14.6746 24.2024 14.5334 24.2024 14.3565C24.2024 14.1816 24.0677 14.0384 23.9095 14.0384C23.7455 14.0384 23.6166 14.1816 23.6166 14.3565ZM23.6166 11.7763C23.6166 11.9525 23.7455 12.0944 23.9095 12.0944C24.0677 12.0944 24.2024 11.9525 24.2024 11.7763C24.2024 11.6007 24.0677 11.4582 23.9095 11.4582C23.7455 11.4582 23.6166 11.6007 23.6166 11.7763ZM26.0242 24.6792C26.0242 24.8541 26.159 24.9973 26.3171 24.9973C26.4812 24.9973 26.61 24.8541 26.61 24.6792C26.61 24.5024 26.4812 24.3611 26.3171 24.3611C26.159 24.3611 26.0242 24.5024 26.0242 24.6792ZM26.0242 22.0984C26.0242 22.2739 26.159 22.4164 26.3171 22.4164C26.4812 22.4164 26.61 22.2739 26.61 22.0984C26.61 21.9222 26.4812 21.7803 26.3171 21.7803C26.159 21.7803 26.0242 21.9222 26.0242 22.0984ZM26.0242 19.5182C26.0242 19.6931 26.159 19.8362 26.3171 19.8362C26.4812 19.8362 26.61 19.6931 26.61 19.5182C26.61 19.3426 26.4812 19.2001 26.3171 19.2001C26.159 19.2001 26.0242 19.3426 26.0242 19.5182ZM26.0242 16.9373C26.0242 17.1123 26.159 17.2554 26.3171 17.2554C26.4812 17.2554 26.61 17.1123 26.61 16.9373C26.61 16.7624 26.4812 16.6193 26.3171 16.6193C26.159 16.6193 26.0242 16.7624 26.0242 16.9373ZM26.0242 14.3565C26.0242 14.5334 26.159 14.6746 26.3171 14.6746C26.4812 14.6746 26.61 14.5334 26.61 14.3565C26.61 14.1816 26.4812 14.0384 26.3171 14.0384C26.159 14.0384 26.0242 14.1816 26.0242 14.3565ZM26.0242 11.7763C26.0242 11.9525 26.159 12.0944 26.3171 12.0944C26.4812 12.0944 26.61 11.9525 26.61 11.7763C26.61 11.6007 26.4812 11.4582 26.3171 11.4582C26.159 11.4582 26.0242 11.6007 26.0242 11.7763ZM28.4377 27.2588C28.4377 27.435 28.5666 27.5768 28.7306 27.5768C28.8888 27.5768 29.0235 27.435 29.0235 27.2588C29.0235 27.0832 28.8888 26.9407 28.7306 26.9407C28.5666 26.9407 28.4377 27.0832 28.4377 27.2588ZM28.4377 24.6792C28.4377 24.8541 28.5666 24.9973 28.7306 24.9973C28.8888 24.9973 29.0235 24.8541 29.0235 24.6792C29.0235 24.5024 28.8888 24.3611 28.7306 24.3611C28.5666 24.3611 28.4377 24.5024 28.4377 24.6792ZM28.4377 22.0984C28.4377 22.2739 28.5666 22.4164 28.7306 22.4164C28.8888 22.4164 29.0235 22.2739 29.0235 22.0984C29.0235 21.9222 28.8888 21.7803 28.7306 21.7803C28.5666 21.7803 28.4377 21.9222 28.4377 22.0984ZM28.4377 19.5182C28.4377 19.6931 28.5666 19.8362 28.7306 19.8362C28.8888 19.8362 29.0235 19.6931 29.0235 19.5182C29.0235 19.3426 28.8888 19.2001 28.7306 19.2001C28.5666 19.2001 28.4377 19.3426 28.4377 19.5182ZM28.4377 16.9373C28.4377 17.1123 28.5666 17.2554 28.7306 17.2554C28.8888 17.2554 29.0235 17.1123 29.0235 16.9373C29.0235 16.7624 28.8888 16.6193 28.7306 16.6193C28.5666 16.6193 28.4377 16.7624 28.4377 16.9373ZM28.4377 14.3565C28.4377 14.5334 28.5666 14.6746 28.7306 14.6746C28.8888 14.6746 29.0235 14.5334 29.0235 14.3565C29.0235 14.1816 28.8888 14.0384 28.7306 14.0384C28.5666 14.0384 28.4377 14.1816 28.4377 14.3565ZM28.4377 11.7763C28.4377 11.9525 28.5666 12.0944 28.7306 12.0944C28.8888 12.0944 29.0235 11.9525 29.0235 11.7763C29.0235 11.6007 28.8888 11.4582 28.7306 11.4582C28.5666 11.4582 28.4377 11.6007 28.4377 11.7763ZM30.8454 27.2588C30.8454 27.435 30.9801 27.5768 31.1383 27.5768C31.3023 27.5768 31.4312 27.435 31.4312 27.2588C31.4312 27.0832 31.3023 26.9407 31.1383 26.9407C30.9801 26.9407 30.8454 27.0832 30.8454 27.2588ZM30.8454 24.6792C30.8454 24.8541 30.9801 24.9973 31.1383 24.9973C31.3023 24.9973 31.4312 24.8541 31.4312 24.6792C31.4312 24.5024 31.3023 24.3611 31.1383 24.3611C30.9801 24.3611 30.8454 24.5024 30.8454 24.6792ZM30.8454 22.0984C30.8454 22.2739 30.9801 22.4164 31.1383 22.4164C31.3023 22.4164 31.4312 22.2739 31.4312 22.0984C31.4312 21.9222 31.3023 21.7803 31.1383 21.7803C30.9801 21.7803 30.8454 21.9222 30.8454 22.0984ZM30.8454 19.5182C30.8454 19.6931 30.9801 19.8362 31.1383 19.8362C31.3023 19.8362 31.4312 19.6931 31.4312 19.5182C31.4312 19.3426 31.3023 19.2001 31.1383 19.2001C30.9801 19.2001 30.8454 19.3426 30.8454 19.5182ZM30.8454 16.9373C30.8454 17.1123 30.9801 17.2554 31.1383 17.2554C31.3023 17.2554 31.4312 17.1123 31.4312 16.9373C31.4312 16.7624 31.3023 16.6193 31.1383 16.6193C30.9801 16.6193 30.8454 16.7624 30.8454 16.9373ZM30.8454 14.3565C30.8454 14.5334 30.9801 14.6746 31.1383 14.6746C31.3023 14.6746 31.4312 14.5334 31.4312 14.3565C31.4312 14.1816 31.3023 14.0384 31.1383 14.0384C30.9801 14.0384 30.8454 14.1816 30.8454 14.3565ZM30.8454 11.7763C30.8454 11.9525 30.9801 12.0944 31.1383 12.0944C31.3023 12.0944 31.4312 11.9525 31.4312 11.7763C31.4312 11.6007 31.3023 11.4582 31.1383 11.4582C30.9801 11.4582 30.8454 11.6007 30.8454 11.7763ZM33.2588 32.4198C33.2588 32.596 33.3877 32.7379 33.5517 32.7379C33.7099 32.7379 33.8446 32.596 33.8446 32.4198C33.8446 32.2442 33.7099 32.1017 33.5517 32.1017C33.3877 32.1017 33.2588 32.2442 33.2588 32.4198ZM33.2588 29.839C33.2588 30.0158 33.3877 30.157 33.5517 30.157C33.7099 30.157 33.8446 30.0158 33.8446 29.839C33.8446 29.664 33.7099 29.5209 33.5517 29.5209C33.3877 29.5209 33.2588 29.664 33.2588 29.839ZM33.2588 27.2588C33.2588 27.435 33.3877 27.5768 33.5517 27.5768C33.7099 27.5768 33.8446 27.435 33.8446 27.2588C33.8446 27.0832 33.7099 26.9407 33.5517 26.9407C33.3877 26.9407 33.2588 27.0832 33.2588 27.2588ZM33.2588 24.6792C33.2588 24.8541 33.3877 24.9973 33.5517 24.9973C33.7099 24.9973 33.8446 24.8541 33.8446 24.6792C33.8446 24.5024 33.7099 24.3611 33.5517 24.3611C33.3877 24.3611 33.2588 24.5024 33.2588 24.6792ZM33.2588 22.0984C33.2588 22.2739 33.3877 22.4164 33.5517 22.4164C33.7099 22.4164 33.8446 22.2739 33.8446 22.0984C33.8446 21.9222 33.7099 21.7803 33.5517 21.7803C33.3877 21.7803 33.2588 21.9222 33.2588 22.0984ZM33.2588 19.5182C33.2588 19.6931 33.3877 19.8362 33.5517 19.8362C33.7099 19.8362 33.8446 19.6931 33.8446 19.5182C33.8446 19.3426 33.7099 19.2001 33.5517 19.2001C33.3877 19.2001 33.2588 19.3426 33.2588 19.5182ZM33.2588 16.9373C33.2588 17.1123 33.3877 17.2554 33.5517 17.2554C33.7099 17.2554 33.8446 17.1123 33.8446 16.9373C33.8446 16.7624 33.7099 16.6193 33.5517 16.6193C33.3877 16.6193 33.2588 16.7624 33.2588 16.9373ZM33.2588 14.3565C33.2588 14.5334 33.3877 14.6746 33.5517 14.6746C33.7099 14.6746 33.8446 14.5334 33.8446 14.3565C33.8446 14.1816 33.7099 14.0384 33.5517 14.0384C33.3877 14.0384 33.2588 14.1816 33.2588 14.3565ZM33.2588 11.7763C33.2588 11.9525 33.3877 12.0944 33.5517 12.0944C33.7099 12.0944 33.8446 11.9525 33.8446 11.7763C33.8446 11.6007 33.7099 11.4582 33.5517 11.4582C33.3877 11.4582 33.2588 11.6007 33.2588 11.7763ZM35.6664 58.2243C35.6664 58.3993 35.7953 58.5424 35.9593 58.5424C36.1233 58.5424 36.2522 58.3993 36.2522 58.2243C36.2522 58.0475 36.1233 57.9062 35.9593 57.9062C35.7953 57.9062 35.6664 58.0475 35.6664 58.2243ZM35.6664 55.6435C35.6664 55.8191 35.7953 55.9616 35.9593 55.9616C36.1233 55.9616 36.2522 55.8191 36.2522 55.6435C36.2522 55.4673 36.1233 55.3254 35.9593 55.3254C35.7953 55.3254 35.6664 55.4673 35.6664 55.6435ZM35.6664 53.0633C35.6664 53.2382 35.7953 53.3814 35.9593 53.3814C36.1233 53.3814 36.2522 53.2382 36.2522 53.0633C36.2522 52.8877 36.1233 52.7452 35.9593 52.7452C35.7953 52.7452 35.6664 52.8877 35.6664 53.0633ZM35.6664 50.4824C35.6664 50.6574 35.7953 50.8005 35.9593 50.8005C36.1233 50.8005 36.2522 50.6574 36.2522 50.4824C36.2522 50.3075 36.1233 50.1644 35.9593 50.1644C35.7953 50.1644 35.6664 50.3075 35.6664 50.4824ZM35.6664 47.9016C35.6664 48.0785 35.7953 48.2197 35.9593 48.2197C36.1233 48.2197 36.2522 48.0785 36.2522 47.9016C36.2522 47.7267 36.1233 47.5835 35.9593 47.5835C35.7953 47.5835 35.6664 47.7267 35.6664 47.9016ZM35.6664 45.3214C35.6664 45.4976 35.7953 45.6395 35.9593 45.6395C36.1233 45.6395 36.2522 45.4976 36.2522 45.3214C36.2522 45.1458 36.1233 45.0033 35.9593 45.0033C35.7953 45.0033 35.6664 45.1458 35.6664 45.3214ZM35.6664 42.7419C35.6664 42.9168 35.7953 43.0599 35.9593 43.0599C36.1233 43.0599 36.2522 42.9168 36.2522 42.7419C36.2522 42.5656 36.1233 42.4238 35.9593 42.4238C35.7953 42.4238 35.6664 42.5656 35.6664 42.7419ZM35.6664 40.161C35.6664 40.3366 35.7953 40.4791 35.9593 40.4791C36.1233 40.4791 36.2522 40.3366 36.2522 40.161C36.2522 39.9848 36.1233 39.843 35.9593 39.843C35.7953 39.843 35.6664 39.9848 35.6664 40.161ZM35.6664 37.5808C35.6664 37.7558 35.7953 37.8989 35.9593 37.8989C36.1233 37.8989 36.2522 37.7558 36.2522 37.5808C36.2522 37.4046 36.1233 37.2628 35.9593 37.2628C35.7953 37.2628 35.6664 37.4046 35.6664 37.5808ZM35.6664 35C35.6664 35.1756 35.7953 35.3181 35.9593 35.3181C36.1233 35.3181 36.2522 35.1756 36.2522 35C36.2522 34.8251 36.1233 34.6819 35.9593 34.6819C35.7953 34.6819 35.6664 34.8251 35.6664 35ZM35.6664 32.4198C35.6664 32.596 35.7953 32.7379 35.9593 32.7379C36.1233 32.7379 36.2522 32.596 36.2522 32.4198C36.2522 32.2442 36.1233 32.1017 35.9593 32.1017C35.7953 32.1017 35.6664 32.2442 35.6664 32.4198ZM35.6664 29.839C35.6664 30.0158 35.7953 30.157 35.9593 30.157C36.1233 30.157 36.2522 30.0158 36.2522 29.839C36.2522 29.664 36.1233 29.5209 35.9593 29.5209C35.7953 29.5209 35.6664 29.664 35.6664 29.839ZM35.6664 27.2588C35.6664 27.435 35.7953 27.5768 35.9593 27.5768C36.1233 27.5768 36.2522 27.435 36.2522 27.2588C36.2522 27.0832 36.1233 26.9407 35.9593 26.9407C35.7953 26.9407 35.6664 27.0832 35.6664 27.2588ZM35.6664 24.6792C35.6664 24.8541 35.7953 24.9973 35.9593 24.9973C36.1233 24.9973 36.2522 24.8541 36.2522 24.6792C36.2522 24.5024 36.1233 24.3611 35.9593 24.3611C35.7953 24.3611 35.6664 24.5024 35.6664 24.6792ZM35.6664 22.0984C35.6664 22.2739 35.7953 22.4164 35.9593 22.4164C36.1233 22.4164 36.2522 22.2739 36.2522 22.0984C36.2522 21.9222 36.1233 21.7803 35.9593 21.7803C35.7953 21.7803 35.6664 21.9222 35.6664 22.0984ZM35.6664 19.5182C35.6664 19.6931 35.7953 19.8362 35.9593 19.8362C36.1233 19.8362 36.2522 19.6931 36.2522 19.5182C36.2522 19.3426 36.1233 19.2001 35.9593 19.2001C35.7953 19.2001 35.6664 19.3426 35.6664 19.5182ZM35.6664 16.9373C35.6664 17.1123 35.7953 17.2554 35.9593 17.2554C36.1233 17.2554 36.2522 17.1123 36.2522 16.9373C36.2522 16.7624 36.1233 16.6193 35.9593 16.6193C35.7953 16.6193 35.6664 16.7624 35.6664 16.9373ZM35.6664 14.3565C35.6664 14.5334 35.7953 14.6746 35.9593 14.6746C36.1233 14.6746 36.2522 14.5334 36.2522 14.3565C36.2522 14.1816 36.1233 14.0384 35.9593 14.0384C35.7953 14.0384 35.6664 14.1816 35.6664 14.3565ZM35.6664 11.7763C35.6664 11.9525 35.7953 12.0944 35.9593 12.0944C36.1233 12.0944 36.2522 11.9525 36.2522 11.7763C36.2522 11.6007 36.1233 11.4582 35.9593 11.4582C35.7953 11.4582 35.6664 11.6007 35.6664 11.7763ZM33.8446 37.5808C33.8446 37.4046 33.7099 37.2628 33.5517 37.2628C33.3877 37.2628 33.2588 37.4046 33.2588 37.5808C33.2588 37.7558 33.3877 37.8989 33.5517 37.8989C33.7099 37.8989 33.8446 37.7558 33.8446 37.5808ZM33.8446 40.161C33.8446 39.9848 33.7099 39.843 33.5517 39.843C33.3877 39.843 33.2588 39.9848 33.2588 40.161C33.2588 40.3366 33.3877 40.4791 33.5517 40.4791C33.7099 40.4791 33.8446 40.3366 33.8446 40.161ZM33.8446 42.7419C33.8446 42.5656 33.7099 42.4238 33.5517 42.4238C33.3877 42.4238 33.2588 42.5656 33.2588 42.7419C33.2588 42.9168 33.3877 43.0599 33.5517 43.0599C33.7099 43.0599 33.8446 42.9168 33.8446 42.7419ZM33.8446 45.3214C33.8446 45.1458 33.7099 45.0033 33.5517 45.0033C33.3877 45.0033 33.2588 45.1458 33.2588 45.3214C33.2588 45.4976 33.3877 45.6395 33.5517 45.6395C33.7099 45.6395 33.8446 45.4976 33.8446 45.3214ZM33.8446 47.9016C33.8446 47.7267 33.7099 47.5835 33.5517 47.5835C33.3877 47.5835 33.2588 47.7267 33.2588 47.9016C33.2588 48.0785 33.3877 48.2197 33.5517 48.2197C33.7099 48.2197 33.8446 48.0785 33.8446 47.9016ZM33.8446 50.4824C33.8446 50.3075 33.7099 50.1644 33.5517 50.1644C33.3877 50.1644 33.2588 50.3075 33.2588 50.4824C33.2588 50.6574 33.3877 50.8005 33.5517 50.8005C33.7099 50.8005 33.8446 50.6574 33.8446 50.4824ZM33.8446 53.0633C33.8446 52.8877 33.7099 52.7452 33.5517 52.7452C33.3877 52.7452 33.2588 52.8877 33.2588 53.0633C33.2588 53.2382 33.3877 53.3814 33.5517 53.3814C33.7099 53.3814 33.8446 53.2382 33.8446 53.0633ZM33.8446 55.6435C33.8446 55.4673 33.7099 55.3254 33.5517 55.3254C33.3877 55.3254 33.2588 55.4673 33.2588 55.6435C33.2588 55.8191 33.3877 55.9616 33.5517 55.9616C33.7099 55.9616 33.8446 55.8191 33.8446 55.6435ZM33.8446 58.2243C33.8446 58.0475 33.7099 57.9062 33.5517 57.9062C33.3877 57.9062 33.2588 58.0475 33.2588 58.2243C33.2588 58.3993 33.3877 58.5424 33.5517 58.5424C33.7099 58.5424 33.8446 58.3993 33.8446 58.2243ZM31.4312 42.7419C31.4312 42.5656 31.3023 42.4238 31.1383 42.4238C30.9801 42.4238 30.8454 42.5656 30.8454 42.7419C30.8454 42.9168 30.9801 43.0599 31.1383 43.0599C31.3023 43.0599 31.4312 42.9168 31.4312 42.7419ZM31.4312 45.3214C31.4312 45.1458 31.3023 45.0033 31.1383 45.0033C30.9801 45.0033 30.8454 45.1458 30.8454 45.3214C30.8454 45.4976 30.9801 45.6395 31.1383 45.6395C31.3023 45.6395 31.4312 45.4976 31.4312 45.3214ZM31.4312 47.9016C31.4312 47.7267 31.3023 47.5835 31.1383 47.5835C30.9801 47.5835 30.8454 47.7267 30.8454 47.9016C30.8454 48.0785 30.9801 48.2197 31.1383 48.2197C31.3023 48.2197 31.4312 48.0785 31.4312 47.9016ZM31.4312 50.4824C31.4312 50.3075 31.3023 50.1644 31.1383 50.1644C30.9801 50.1644 30.8454 50.3075 30.8454 50.4824C30.8454 50.6574 30.9801 50.8005 31.1383 50.8005C31.3023 50.8005 31.4312 50.6574 31.4312 50.4824ZM31.4312 53.0633C31.4312 52.8877 31.3023 52.7452 31.1383 52.7452C30.9801 52.7452 30.8454 52.8877 30.8454 53.0633C30.8454 53.2382 30.9801 53.3814 31.1383 53.3814C31.3023 53.3814 31.4312 53.2382 31.4312 53.0633ZM31.4312 55.6435C31.4312 55.4673 31.3023 55.3254 31.1383 55.3254C30.9801 55.3254 30.8454 55.4673 30.8454 55.6435C30.8454 55.8191 30.9801 55.9616 31.1383 55.9616C31.3023 55.9616 31.4312 55.8191 31.4312 55.6435ZM31.4312 58.2243C31.4312 58.0475 31.3023 57.9062 31.1383 57.9062C30.9801 57.9062 30.8454 58.0475 30.8454 58.2243C30.8454 58.3993 30.9801 58.5424 31.1383 58.5424C31.3023 58.5424 31.4312 58.3993 31.4312 58.2243ZM29.0235 42.7419C29.0235 42.5656 28.8888 42.4238 28.7306 42.4238C28.5666 42.4238 28.4377 42.5656 28.4377 42.7419C28.4377 42.9168 28.5666 43.0599 28.7306 43.0599C28.8888 43.0599 29.0235 42.9168 29.0235 42.7419ZM29.0235 45.3214C29.0235 45.1458 28.8888 45.0033 28.7306 45.0033C28.5666 45.0033 28.4377 45.1458 28.4377 45.3214C28.4377 45.4976 28.5666 45.6395 28.7306 45.6395C28.8888 45.6395 29.0235 45.4976 29.0235 45.3214ZM29.0235 47.9016C29.0235 47.7267 28.8888 47.5835 28.7306 47.5835C28.5666 47.5835 28.4377 47.7267 28.4377 47.9016C28.4377 48.0785 28.5666 48.2197 28.7306 48.2197C28.8888 48.2197 29.0235 48.0785 29.0235 47.9016ZM29.0235 50.4824C29.0235 50.3075 28.8888 50.1644 28.7306 50.1644C28.5666 50.1644 28.4377 50.3075 28.4377 50.4824C28.4377 50.6574 28.5666 50.8005 28.7306 50.8005C28.8888 50.8005 29.0235 50.6574 29.0235 50.4824ZM29.0235 53.0633C29.0235 52.8877 28.8888 52.7452 28.7306 52.7452C28.5666 52.7452 28.4377 52.8877 28.4377 53.0633C28.4377 53.2382 28.5666 53.3814 28.7306 53.3814C28.8888 53.3814 29.0235 53.2382 29.0235 53.0633ZM29.0235 55.6435C29.0235 55.4673 28.8888 55.3254 28.7306 55.3254C28.5666 55.3254 28.4377 55.4673 28.4377 55.6435C28.4377 55.8191 28.5666 55.9616 28.7306 55.9616C28.8888 55.9616 29.0235 55.8191 29.0235 55.6435ZM29.0235 58.2243C29.0235 58.0475 28.8888 57.9062 28.7306 57.9062C28.5666 57.9062 28.4377 58.0475 28.4377 58.2243C28.4377 58.3993 28.5666 58.5424 28.7306 58.5424C28.8888 58.5424 29.0235 58.3993 29.0235 58.2243ZM26.61 45.3214C26.61 45.1458 26.4812 45.0033 26.3171 45.0033C26.159 45.0033 26.0242 45.1458 26.0242 45.3214C26.0242 45.4976 26.159 45.6395 26.3171 45.6395C26.4812 45.6395 26.61 45.4976 26.61 45.3214ZM26.61 47.9016C26.61 47.7267 26.4812 47.5835 26.3171 47.5835C26.159 47.5835 26.0242 47.7267 26.0242 47.9016C26.0242 48.0785 26.159 48.2197 26.3171 48.2197C26.4812 48.2197 26.61 48.0785 26.61 47.9016ZM26.61 50.4824C26.61 50.3075 26.4812 50.1644 26.3171 50.1644C26.159 50.1644 26.0242 50.3075 26.0242 50.4824C26.0242 50.6574 26.159 50.8005 26.3171 50.8005C26.4812 50.8005 26.61 50.6574 26.61 50.4824ZM26.61 53.0633C26.61 52.8877 26.4812 52.7452 26.3171 52.7452C26.159 52.7452 26.0242 52.8877 26.0242 53.0633C26.0242 53.2382 26.159 53.3814 26.3171 53.3814C26.4812 53.3814 26.61 53.2382 26.61 53.0633ZM26.61 55.6435C26.61 55.4673 26.4812 55.3254 26.3171 55.3254C26.159 55.3254 26.0242 55.4673 26.0242 55.6435C26.0242 55.8191 26.159 55.9616 26.3171 55.9616C26.4812 55.9616 26.61 55.8191 26.61 55.6435ZM26.61 58.2243C26.61 58.0475 26.4812 57.9062 26.3171 57.9062C26.159 57.9062 26.0242 58.0475 26.0242 58.2243C26.0242 58.3993 26.159 58.5424 26.3171 58.5424C26.4812 58.5424 26.61 58.3993 26.61 58.2243ZM24.2024 42.7419C24.2024 42.5656 24.0677 42.4238 23.9095 42.4238C23.7455 42.4238 23.6166 42.5656 23.6166 42.7419C23.6166 42.9168 23.7455 43.0599 23.9095 43.0599C24.0677 43.0599 24.2024 42.9168 24.2024 42.7419ZM24.2024 45.3214C24.2024 45.1458 24.0677 45.0033 23.9095 45.0033C23.7455 45.0033 23.6166 45.1458 23.6166 45.3214C23.6166 45.4976 23.7455 45.6395 23.9095 45.6395C24.0677 45.6395 24.2024 45.4976 24.2024 45.3214ZM24.2024 47.9016C24.2024 47.7267 24.0677 47.5835 23.9095 47.5835C23.7455 47.5835 23.6166 47.7267 23.6166 47.9016C23.6166 48.0785 23.7455 48.2197 23.9095 48.2197C24.0677 48.2197 24.2024 48.0785 24.2024 47.9016ZM24.2024 50.4824C24.2024 50.3075 24.0677 50.1644 23.9095 50.1644C23.7455 50.1644 23.6166 50.3075 23.6166 50.4824C23.6166 50.6574 23.7455 50.8005 23.9095 50.8005C24.0677 50.8005 24.2024 50.6574 24.2024 50.4824ZM24.2024 53.0633C24.2024 52.8877 24.0677 52.7452 23.9095 52.7452C23.7455 52.7452 23.6166 52.8877 23.6166 53.0633C23.6166 53.2382 23.7455 53.3814 23.9095 53.3814C24.0677 53.3814 24.2024 53.2382 24.2024 53.0633ZM24.2024 55.6435C24.2024 55.4673 24.0677 55.3254 23.9095 55.3254C23.7455 55.3254 23.6166 55.4673 23.6166 55.6435C23.6166 55.8191 23.7455 55.9616 23.9095 55.9616C24.0677 55.9616 24.2024 55.8191 24.2024 55.6435ZM24.2024 58.2243C24.2024 58.0475 24.0677 57.9062 23.9095 57.9062C23.7455 57.9062 23.6166 58.0475 23.6166 58.2243C23.6166 58.3993 23.7455 58.5424 23.9095 58.5424C24.0677 58.5424 24.2024 58.3993 24.2024 58.2243ZM21.789 42.7419C21.789 42.5656 21.6601 42.4238 21.4961 42.4238C21.3379 42.4238 21.2032 42.5656 21.2032 42.7419C21.2032 42.9168 21.3379 43.0599 21.4961 43.0599C21.6601 43.0599 21.789 42.9168 21.789 42.7419ZM21.789 45.3214C21.789 45.1458 21.6601 45.0033 21.4961 45.0033C21.3379 45.0033 21.2032 45.1458 21.2032 45.3214C21.2032 45.4976 21.3379 45.6395 21.4961 45.6395C21.6601 45.6395 21.789 45.4976 21.789 45.3214ZM21.789 47.9016C21.789 47.7267 21.6601 47.5835 21.4961 47.5835C21.3379 47.5835 21.2032 47.7267 21.2032 47.9016C21.2032 48.0785 21.3379 48.2197 21.4961 48.2197C21.6601 48.2197 21.789 48.0785 21.789 47.9016ZM21.789 50.4824C21.789 50.3075 21.6601 50.1644 21.4961 50.1644C21.3379 50.1644 21.2032 50.3075 21.2032 50.4824C21.2032 50.6574 21.3379 50.8005 21.4961 50.8005C21.6601 50.8005 21.789 50.6574 21.789 50.4824ZM21.789 53.0633C21.789 52.8877 21.6601 52.7452 21.4961 52.7452C21.3379 52.7452 21.2032 52.8877 21.2032 53.0633C21.2032 53.2382 21.3379 53.3814 21.4961 53.3814C21.6601 53.3814 21.789 53.2382 21.789 53.0633ZM21.789 55.6435C21.789 55.4673 21.6601 55.3254 21.4961 55.3254C21.3379 55.3254 21.2032 55.4673 21.2032 55.6435C21.2032 55.8191 21.3379 55.9616 21.4961 55.9616C21.6601 55.9616 21.789 55.8191 21.789 55.6435ZM21.789 58.2243C21.789 58.0475 21.6601 57.9062 21.4961 57.9062C21.3379 57.9062 21.2032 58.0475 21.2032 58.2243C21.2032 58.3993 21.3379 58.5424 21.4961 58.5424C21.6601 58.5424 21.789 58.3993 21.789 58.2243ZM19.3814 37.5808C19.3814 37.4046 19.2525 37.2628 19.0885 37.2628C18.9245 37.2628 18.7956 37.4046 18.7956 37.5808C18.7956 37.7558 18.9245 37.8989 19.0885 37.8989C19.2525 37.8989 19.3814 37.7558 19.3814 37.5808ZM19.3814 40.161C19.3814 39.9848 19.2525 39.843 19.0885 39.843C18.9245 39.843 18.7956 39.9848 18.7956 40.161C18.7956 40.3366 18.9245 40.4791 19.0885 40.4791C19.2525 40.4791 19.3814 40.3366 19.3814 40.161ZM19.3814 42.7419C19.3814 42.5656 19.2525 42.4238 19.0885 42.4238C18.9245 42.4238 18.7956 42.5656 18.7956 42.7419C18.7956 42.9168 18.9245 43.0599 19.0885 43.0599C19.2525 43.0599 19.3814 42.9168 19.3814 42.7419ZM19.3814 45.3214C19.3814 45.1458 19.2525 45.0033 19.0885 45.0033C18.9245 45.0033 18.7956 45.1458 18.7956 45.3214C18.7956 45.4976 18.9245 45.6395 19.0885 45.6395C19.2525 45.6395 19.3814 45.4976 19.3814 45.3214ZM19.3814 47.9016C19.3814 47.7267 19.2525 47.5835 19.0885 47.5835C18.9245 47.5835 18.7956 47.7267 18.7956 47.9016C18.7956 48.0785 18.9245 48.2197 19.0885 48.2197C19.2525 48.2197 19.3814 48.0785 19.3814 47.9016ZM19.3814 50.4824C19.3814 50.3075 19.2525 50.1644 19.0885 50.1644C18.9245 50.1644 18.7956 50.3075 18.7956 50.4824C18.7956 50.6574 18.9245 50.8005 19.0885 50.8005C19.2525 50.8005 19.3814 50.6574 19.3814 50.4824ZM19.3814 53.0633C19.3814 52.8877 19.2525 52.7452 19.0885 52.7452C18.9245 52.7452 18.7956 52.8877 18.7956 53.0633C18.7956 53.2382 18.9245 53.3814 19.0885 53.3814C19.2525 53.3814 19.3814 53.2382 19.3814 53.0633ZM19.3814 55.6435C19.3814 55.4673 19.2525 55.3254 19.0885 55.3254C18.9245 55.3254 18.7956 55.4673 18.7956 55.6435C18.7956 55.8191 18.9245 55.9616 19.0885 55.9616C19.2525 55.9616 19.3814 55.8191 19.3814 55.6435ZM19.3814 58.2243C19.3814 58.0475 19.2525 57.9062 19.0885 57.9062C18.9245 57.9062 18.7956 58.0475 18.7956 58.2243C18.7956 58.3993 18.9245 58.5424 19.0885 58.5424C19.2525 58.5424 19.3814 58.3993 19.3814 58.2243ZM38.0799 55.6435C38.0799 55.8191 38.2088 55.9616 38.3728 55.9616C38.5309 55.9616 38.6657 55.8191 38.6657 55.6435C38.6657 55.4673 38.5309 55.3254 38.3728 55.3254C38.2088 55.3254 38.0799 55.4673 38.0799 55.6435ZM38.0799 53.0633C38.0799 53.2382 38.2088 53.3814 38.3728 53.3814C38.5309 53.3814 38.6657 53.2382 38.6657 53.0633C38.6657 52.8877 38.5309 52.7452 38.3728 52.7452C38.2088 52.7452 38.0799 52.8877 38.0799 53.0633ZM38.0799 50.4824C38.0799 50.6574 38.2088 50.8005 38.3728 50.8005C38.5309 50.8005 38.6657 50.6574 38.6657 50.4824C38.6657 50.3075 38.5309 50.1644 38.3728 50.1644C38.2088 50.1644 38.0799 50.3075 38.0799 50.4824ZM38.0799 47.9016C38.0799 48.0785 38.2088 48.2197 38.3728 48.2197C38.5309 48.2197 38.6657 48.0785 38.6657 47.9016C38.6657 47.7267 38.5309 47.5835 38.3728 47.5835C38.2088 47.5835 38.0799 47.7267 38.0799 47.9016ZM38.0799 45.3214C38.0799 45.4976 38.2088 45.6395 38.3728 45.6395C38.5309 45.6395 38.6657 45.4976 38.6657 45.3214C38.6657 45.1458 38.5309 45.0033 38.3728 45.0033C38.2088 45.0033 38.0799 45.1458 38.0799 45.3214ZM38.0799 42.7419C38.0799 42.9168 38.2088 43.0599 38.3728 43.0599C38.5309 43.0599 38.6657 42.9168 38.6657 42.7419C38.6657 42.5656 38.5309 42.4238 38.3728 42.4238C38.2088 42.4238 38.0799 42.5656 38.0799 42.7419ZM38.0799 40.161C38.0799 40.3366 38.2088 40.4791 38.3728 40.4791C38.5309 40.4791 38.6657 40.3366 38.6657 40.161C38.6657 39.9848 38.5309 39.843 38.3728 39.843C38.2088 39.843 38.0799 39.9848 38.0799 40.161ZM38.0799 37.5808C38.0799 37.7558 38.2088 37.8989 38.3728 37.8989C38.5309 37.8989 38.6657 37.7558 38.6657 37.5808C38.6657 37.4046 38.5309 37.2628 38.3728 37.2628C38.2088 37.2628 38.0799 37.4046 38.0799 37.5808ZM38.0799 35C38.0799 35.1756 38.2088 35.3181 38.3728 35.3181C38.5309 35.3181 38.6657 35.1756 38.6657 35C38.6657 34.8251 38.5309 34.6819 38.3728 34.6819C38.2088 34.6819 38.0799 34.8251 38.0799 35ZM38.0799 32.4198C38.0799 32.596 38.2088 32.7379 38.3728 32.7379C38.5309 32.7379 38.6657 32.596 38.6657 32.4198C38.6657 32.2442 38.5309 32.1017 38.3728 32.1017C38.2088 32.1017 38.0799 32.2442 38.0799 32.4198ZM38.0799 29.839C38.0799 30.0158 38.2088 30.157 38.3728 30.157C38.5309 30.157 38.6657 30.0158 38.6657 29.839C38.6657 29.664 38.5309 29.5209 38.3728 29.5209C38.2088 29.5209 38.0799 29.664 38.0799 29.839ZM38.0799 27.2588C38.0799 27.435 38.2088 27.5768 38.3728 27.5768C38.5309 27.5768 38.6657 27.435 38.6657 27.2588C38.6657 27.0832 38.5309 26.9407 38.3728 26.9407C38.2088 26.9407 38.0799 27.0832 38.0799 27.2588ZM38.0799 24.6792C38.0799 24.8541 38.2088 24.9973 38.3728 24.9973C38.5309 24.9973 38.6657 24.8541 38.6657 24.6792C38.6657 24.5024 38.5309 24.3611 38.3728 24.3611C38.2088 24.3611 38.0799 24.5024 38.0799 24.6792ZM38.0799 22.0984C38.0799 22.2739 38.2088 22.4164 38.3728 22.4164C38.5309 22.4164 38.6657 22.2739 38.6657 22.0984C38.6657 21.9222 38.5309 21.7803 38.3728 21.7803C38.2088 21.7803 38.0799 21.9222 38.0799 22.0984ZM38.0799 19.5182C38.0799 19.6931 38.2088 19.8362 38.3728 19.8362C38.5309 19.8362 38.6657 19.6931 38.6657 19.5182C38.6657 19.3426 38.5309 19.2001 38.3728 19.2001C38.2088 19.2001 38.0799 19.3426 38.0799 19.5182ZM38.0799 16.9373C38.0799 17.1123 38.2088 17.2554 38.3728 17.2554C38.5309 17.2554 38.6657 17.1123 38.6657 16.9373C38.6657 16.7624 38.5309 16.6193 38.3728 16.6193C38.2088 16.6193 38.0799 16.7624 38.0799 16.9373ZM38.0799 14.3565C38.0799 14.5334 38.2088 14.6746 38.3728 14.6746C38.5309 14.6746 38.6657 14.5334 38.6657 14.3565C38.6657 14.1816 38.5309 14.0384 38.3728 14.0384C38.2088 14.0384 38.0799 14.1816 38.0799 14.3565ZM12.8439 56.9787V13.0212C14.2264 12.8698 15.3101 11.6892 15.4507 10.1904H37.1836C37.3242 11.6892 38.4137 12.8698 39.7904 13.0212V56.9787C38.4137 57.1301 37.3242 58.3108 37.1836 59.8096H15.4507C15.3101 58.3108 14.2264 57.1301 12.8439 56.9787ZM20.3245 35C20.1605 34.465 20.0492 33.9561 19.9789 33.4682C19.481 33.9421 18.9713 34.4478 18.4558 35C18.9713 35.5522 19.481 36.0585 19.9789 36.5325C20.0492 36.0445 20.1605 35.535 20.3245 35ZM28.1097 37.3957C28.1155 37.4676 28.1214 37.5369 28.1214 37.6095C28.1273 38.7221 27.7113 39.904 26.8385 41.0039C27.3247 41.1528 27.7817 41.2482 28.2034 41.2946C28.7717 40.5522 29.2695 39.8321 29.7089 39.133L28.1097 37.3957ZM34.1785 35C33.663 34.4478 33.1592 33.9421 32.6554 33.4682C32.5851 33.9561 32.4738 34.465 32.3156 35C32.4738 35.535 32.5851 36.0445 32.6554 36.5325C33.1592 36.0585 33.663 35.5522 34.1785 35ZM24.9054 41.8831C25.3448 42.4257 25.8075 42.976 26.3171 43.537C26.8268 42.976 27.2954 42.4257 27.7289 41.8831C27.2779 41.8055 26.8092 41.6859 26.3171 41.5128C25.8251 41.6859 25.3565 41.8055 24.9054 41.8831ZM32.1634 32.1838C32.1458 31.0616 31.8353 30.1952 31.2905 29.603C30.7457 29.0107 29.9432 28.6729 28.9122 28.6506C29.4277 29.3409 29.8964 30.0184 30.3005 30.6749C30.9039 31.1157 31.5307 31.624 32.1634 32.1838ZM30.3005 39.3258C30.9039 38.8849 31.5307 38.376 32.1634 37.8162C32.1458 38.9384 31.8353 39.8048 31.2905 40.397C30.7457 40.9893 29.9432 41.3277 28.9122 41.3493C29.4277 40.6591 29.8964 39.9816 30.3005 39.3258Z" fill="#D24C60"/>
</g>
</g>
<rect x="5" y="1" width="43" height="68" rx="5" stroke="white" stroke-width="2"/>
</g>
<defs>
<filter id="filter0_d_946_732997" x="0" y="0" width="53" height="78" filterUnits="userSpaceOnUse" color-interpolation-filters="sRGB">
<feFlood flood-opacity="0" result="BackgroundImageFix"/>
<feColorMatrix in="SourceAlpha" type="matrix" values="0 0 0 0 0 0 0 0 0 0 0 0 0 0 0 0 0 0 127 0" result="hardAlpha"/>
<feOffset dy="4"/>
<feGaussianBlur stdDeviation="2"/>
<feComposite in2="hardAlpha" operator="out"/>
<feColorMatrix type="matrix" values="0 0 0 0 0 0 0 0 0 0 0 0 0 0 0 0 0 0 0.25 0"/>
<feBlend mode="normal" in2="BackgroundImageFix" result="effect1_dropShadow_946_732997"/>
<feBlend mode="normal" in="SourceGraphic" in2="effect1_dropShadow_946_732997" result="shape"/>
</filter>
<linearGradient id="paint0_linear_946_732997" x1="-1.06145" y1="1.55071e-07" x2="57.0041" y2="80.9443" gradientUnits="userSpaceOnUse">
<stop stop-color="white"/>
<stop offset="0.440625" stop-color="white"/>
<stop offset="0.440725" stop-color="#F4F4F4"/>
<stop offset="1" stop-color="white"/>
</linearGradient>
<clipPath id="clip0_946_732997">
<rect x="4" width="45" height="70" rx="6" fill="white"/>
</clipPath>
</defs>
</svg>
