<svg width="141" height="25" viewBox="0 0 141 25" fill="none" xmlns="http://www.w3.org/2000/svg">
<g clip-path="url(#clip0_1112_229732)">
<path d="M15.1118 12.3917H14.3476L15.6173 7.65063C15.727 7.2405 15.6696 6.80365 15.4577 6.43577C15.2458 6.0679 14.8968 5.799 14.487 5.68798C14.0765 5.57836 13.6392 5.63607 13.2712 5.84846C12.9031 6.06084 12.6343 6.41055 12.5238 6.82086L11.1466 12.0972V5.11256C11.1466 4.22976 10.428 3.51148 9.5452 3.51148C8.66239 3.51148 7.94412 4.23004 7.94412 5.11256V12.2229L6.38951 6.49665C6.27934 6.08662 6.01109 5.73699 5.64356 5.52442C5.27603 5.31185 4.83922 5.25367 4.42886 5.36263C4.0187 5.47304 3.66905 5.74159 3.45658 6.10939C3.24411 6.4772 3.18615 6.91424 3.29541 7.32471L5.26661 14.5568C5.27317 14.5984 5.29855 14.7695 5.32022 15.0997C4.98597 15.2616 4.68105 15.478 4.41802 15.7402L3.7927 16.3655C2.48446 17.6737 2.48446 19.8023 3.7927 21.1106L5.53465 22.8525C5.61934 22.9366 5.70773 23.015 5.79955 23.0898C6.09459 23.5995 6.51849 24.0227 7.02873 24.317C7.53897 24.6112 8.1176 24.7661 8.70659 24.7661H12.9769C14.8266 24.7661 16.3322 23.2674 16.3322 21.4245V13.6113C16.3317 13.2878 16.2029 12.9778 15.9741 12.7492C15.7453 12.5206 15.4352 12.392 15.1118 12.3917ZM15.722 21.4248C15.722 22.9312 14.4905 24.1565 12.9769 24.1565H8.70659C8.22159 24.1565 7.74533 24.0274 7.32678 23.7824C6.8945 23.475 6.47762 23.1308 6.27175 22.682C6.06822 22.2943 5.96177 21.863 5.96151 21.4251C5.96151 21.3442 5.9294 21.2667 5.87223 21.2095C5.81507 21.1524 5.73753 21.1203 5.65669 21.1203C5.57585 21.1203 5.49832 21.1524 5.44115 21.2095C5.38399 21.2667 5.35187 21.3442 5.35187 21.4251C5.35187 21.5631 5.361 21.6991 5.37782 21.8328L4.22413 20.6791C3.1537 19.6087 3.1537 17.8679 4.22413 16.7969L4.84945 16.1722C4.99985 16.0228 5.1669 15.8913 5.34731 15.7801C5.35016 15.9127 5.35187 16.0564 5.35187 16.2129V17.8374C5.35187 18.0056 5.48846 18.1425 5.65669 18.1425C5.82493 18.1425 5.96151 18.0056 5.96151 17.8374V16.2129C5.96151 15.9406 5.95695 15.7051 5.9501 15.5006C5.94548 15.2923 5.93398 15.0841 5.9156 14.8765C5.89136 14.5819 5.86627 14.4453 5.86456 14.4348C5.86285 14.4271 5.86114 14.4191 5.85886 14.4114L3.88481 7.16589C3.74366 6.6378 4.05846 6.09317 4.58654 5.95231C5.11463 5.81145 5.65897 6.12597 5.80069 6.65519L7.95495 14.5902C7.97446 14.6614 8.01915 14.7232 8.08073 14.7639C8.1423 14.8047 8.21658 14.8218 8.28979 14.812C8.36299 14.8022 8.43015 14.7661 8.4788 14.7105C8.52745 14.655 8.55428 14.5836 8.55432 14.5098V5.11256C8.55478 4.84975 8.65938 4.59784 8.84521 4.412C9.03105 4.22617 9.28296 4.12157 9.54577 4.12112C9.8086 4.12149 10.0606 4.22607 10.2464 4.41192C10.4323 4.59777 10.5368 4.84973 10.5372 5.11256V14.4721C10.5372 14.6253 10.651 14.755 10.8035 14.7747C10.8771 14.7845 10.9517 14.7671 11.0132 14.7256C11.0748 14.6842 11.119 14.6216 11.1374 14.5497L13.1143 6.97712C13.183 6.72337 13.3495 6.50722 13.5774 6.37609C13.8052 6.24496 14.0757 6.20956 14.3296 6.27766C14.5834 6.34632 14.7996 6.51282 14.9307 6.74064C15.0619 6.96846 15.0974 7.23901 15.0294 7.49295L13.1754 14.4122C13.1581 14.4892 13.1713 14.5699 13.2121 14.6373C13.2529 14.7048 13.3183 14.7539 13.3944 14.7743C13.4706 14.7948 13.5518 14.785 13.6209 14.747C13.69 14.709 13.7417 14.6458 13.7653 14.5705L14.0932 13.3441C14.1853 13.0016 14.3008 13.0016 14.3499 13.0016H15.1126C15.2744 13.0016 15.4296 13.0659 15.544 13.1803C15.6584 13.2946 15.7228 13.4498 15.7228 13.6116V21.4248H15.722ZM9.56088 2.90099C9.39208 2.90099 9.25578 2.7644 9.25578 2.59645V1.07093C9.25578 0.990089 9.28789 0.912557 9.34506 0.855393C9.40222 0.798228 9.47975 0.766113 9.5606 0.766113C9.64144 0.766113 9.71897 0.798228 9.77614 0.855393C9.8333 0.912557 9.86542 0.990089 9.86542 1.07093V2.59645C9.86545 2.63646 9.8576 2.67607 9.84231 2.71304C9.82702 2.75 9.80459 2.78359 9.77631 2.81187C9.74802 2.84016 9.71443 2.86259 9.67747 2.87788C9.6405 2.89317 9.60089 2.90102 9.56088 2.90099ZM8.30254 3.2386C8.24892 3.23866 8.19623 3.2246 8.14977 3.19782C8.10332 3.17104 8.06474 3.13248 8.03793 3.08605L7.27574 1.76497C7.25574 1.73028 7.24278 1.69199 7.23758 1.65228C7.23238 1.61258 7.23506 1.57224 7.24545 1.53357C7.25584 1.4949 7.27375 1.45865 7.29815 1.4269C7.32255 1.39515 7.35296 1.36852 7.38766 1.34852C7.42235 1.32852 7.46064 1.31556 7.50035 1.31036C7.54005 1.30516 7.58039 1.30784 7.61906 1.31823C7.65773 1.32862 7.69398 1.34653 7.72573 1.37093C7.75748 1.39533 7.78411 1.42575 7.80411 1.46044L8.56659 2.78151C8.59331 2.82785 8.60736 2.88041 8.60734 2.9339C8.60732 2.98739 8.59322 3.03993 8.56647 3.08625C8.53971 3.13257 8.50124 3.17103 8.45491 3.19777C8.40858 3.22451 8.35603 3.23859 8.30254 3.2386Z" fill="white"/>
<path d="M7.38081 4.15961C7.32863 4.15961 7.27645 4.14678 7.22855 4.11884L5.90776 3.35665C5.84123 3.31447 5.79357 3.24821 5.77474 3.17172C5.75591 3.09523 5.76736 3.01442 5.80671 2.94618C5.84606 2.87794 5.91026 2.82754 5.98589 2.80551C6.06152 2.78349 6.14274 2.79154 6.21258 2.82799L7.53336 3.59047C7.59144 3.62409 7.63681 3.67592 7.66245 3.73793C7.68809 3.79995 7.69257 3.86868 7.6752 3.9335C7.65782 3.99832 7.61956 4.0556 7.56635 4.09647C7.51313 4.13735 7.44792 4.15954 7.38081 4.15961ZM11.7407 4.15961C11.6737 4.15933 11.6088 4.13705 11.5558 4.0962C11.5027 4.05536 11.4646 3.99821 11.4473 3.93358C11.4299 3.86894 11.4343 3.80039 11.4598 3.73849C11.4852 3.67659 11.5303 3.62478 11.5881 3.59104L12.9089 2.82799C12.9435 2.80787 12.9818 2.79479 13.0215 2.78951C13.0612 2.78423 13.1015 2.78684 13.1402 2.7972C13.1789 2.80756 13.2152 2.82546 13.2469 2.84988C13.2787 2.8743 13.3053 2.90475 13.3252 2.93948C13.3453 2.97414 13.3584 3.01243 13.3636 3.05214C13.3689 3.09185 13.3663 3.13221 13.3559 3.17091C13.3456 3.20961 13.3277 3.24589 13.3033 3.27766C13.2789 3.30944 13.2484 3.33608 13.2137 3.35608L11.8932 4.11912C11.8468 4.1458 11.7942 4.15977 11.7407 4.15961ZM10.8191 3.2386C10.7655 3.23862 10.713 3.22455 10.6666 3.19779C10.6202 3.17104 10.5817 3.13254 10.5549 3.08618C10.5282 3.03982 10.5141 2.98722 10.5141 2.93369C10.5141 2.88016 10.5282 2.82757 10.555 2.78123L11.3172 1.46015C11.3576 1.39009 11.4242 1.33893 11.5023 1.31794C11.5804 1.29696 11.6636 1.30785 11.7337 1.34824C11.8037 1.38862 11.8549 1.45518 11.8759 1.53328C11.8969 1.61138 11.886 1.69462 11.8456 1.76469L11.0837 3.08576C11.057 3.13231 11.0184 3.17097 10.972 3.19781C10.9255 3.22465 10.8727 3.23872 10.8191 3.2386ZM4.84702 4.69996C4.76623 4.69996 4.68874 4.66789 4.63158 4.61078C4.57443 4.55368 4.54228 4.47622 4.5422 4.39543V2.86991C4.5422 2.78906 4.57432 2.71153 4.63148 2.65437C4.68865 2.5972 4.76618 2.56509 4.84702 2.56509C4.92786 2.56509 5.0054 2.5972 5.06256 2.65437C5.11973 2.71153 5.15184 2.78906 5.15184 2.86991V4.39543C5.15184 4.56338 5.01554 4.69996 4.84702 4.69996ZM3.58897 5.03757C3.48375 5.03757 3.3811 4.98254 3.32435 4.88502L2.56188 3.56452C2.5411 3.52979 2.52745 3.49128 2.5217 3.45123C2.51595 3.41118 2.51823 3.37038 2.52839 3.33122C2.53856 3.29205 2.55642 3.2553 2.58092 3.2231C2.60543 3.19091 2.6361 3.1639 2.67114 3.14367C2.70618 3.12344 2.74489 3.11037 2.78503 3.10524C2.82517 3.10011 2.86592 3.10302 2.90493 3.11379C2.94393 3.12456 2.9804 3.14298 3.01222 3.16799C3.04403 3.19299 3.07056 3.22406 3.09025 3.25941L3.85301 4.57992C3.87978 4.62628 3.89388 4.67888 3.89389 4.73242C3.89389 4.78596 3.87981 4.83856 3.85306 4.88494C3.8263 4.93132 3.78781 4.96983 3.74145 4.99663C3.6951 5.02342 3.64251 5.03754 3.58897 5.03757ZM2.66709 5.95859C2.6152 5.95859 2.56273 5.94576 2.51511 5.91781L1.19433 5.15477C1.15965 5.13475 1.12926 5.1081 1.10488 5.07634C1.08051 5.04458 1.06262 5.00833 1.05226 4.96966C1.04189 4.93099 1.03924 4.89065 1.04447 4.85096C1.04969 4.81126 1.06268 4.77299 1.08269 4.73831C1.10271 4.70364 1.12935 4.67325 1.16112 4.64887C1.19288 4.62449 1.22913 4.60661 1.2678 4.59625C1.30647 4.58588 1.3468 4.58323 1.3865 4.58845C1.42619 4.59367 1.46447 4.60666 1.49914 4.62668L2.81993 5.38915C2.87839 5.42258 2.92414 5.47442 2.95003 5.53659C2.97591 5.59876 2.98049 5.66775 2.96303 5.73279C2.94557 5.79783 2.90707 5.85526 2.85353 5.89611C2.79999 5.93696 2.73444 5.95893 2.66709 5.95859ZM2.32977 7.21721H0.805104C0.724185 7.21721 0.646581 7.18507 0.589363 7.12785C0.532144 7.07063 0.5 6.99303 0.5 6.91211C0.5 6.83119 0.532144 6.75359 0.589363 6.69637C0.646581 6.63915 0.724185 6.607 0.805104 6.607H2.32977C2.41069 6.607 2.48829 6.63915 2.54551 6.69637C2.60273 6.75359 2.63487 6.83119 2.63487 6.91211C2.63487 6.99303 2.60273 7.07063 2.54551 7.12785C2.48829 7.18507 2.41069 7.21721 2.32977 7.21721ZM1.34688 9.23774C1.27977 9.23767 1.21456 9.21548 1.16134 9.17461C1.10813 9.13373 1.06987 9.07645 1.0525 9.01163C1.03512 8.94681 1.0396 8.87808 1.06524 8.81606C1.09088 8.75405 1.13625 8.70222 1.19433 8.6686L2.51483 7.90612C2.54958 7.88611 2.58793 7.87313 2.62769 7.86794C2.66746 7.86275 2.70785 7.86544 2.74658 7.87585C2.7853 7.88627 2.82159 7.90422 2.85338 7.92866C2.88517 7.95311 2.91184 7.98357 2.93185 8.01832C2.95187 8.05307 2.96484 8.09143 2.97003 8.13119C2.97523 8.17095 2.97254 8.21135 2.96212 8.25007C2.9517 8.2888 2.93375 8.32509 2.90931 8.35688C2.88486 8.38867 2.8544 8.41533 2.81965 8.43535L1.49914 9.19725C1.45284 9.22392 1.40031 9.23789 1.34688 9.23774ZM14.0942 5.039C14.0134 5.039 13.9359 5.00693 13.8787 4.94984C13.8215 4.89274 13.7893 4.81528 13.7891 4.73446V3.20894C13.7891 3.12806 13.8213 3.05049 13.8785 2.9933C13.9357 2.93611 14.0132 2.90398 14.0941 2.90398C14.175 2.90398 14.2526 2.93611 14.3097 2.9933C14.3669 3.05049 14.3991 3.12806 14.3991 3.20894V4.73446C14.3991 4.9027 14.2628 5.039 14.0942 5.039ZM17.5944 9.57678C17.5425 9.57678 17.4903 9.56395 17.4424 9.536L16.1216 8.77438C16.0869 8.75437 16.0565 8.72771 16.0321 8.69594C16.0077 8.66416 15.9897 8.62789 15.9794 8.58919C15.969 8.5505 15.9663 8.51013 15.9715 8.4704C15.9767 8.43067 15.9897 8.39236 16.0097 8.35765C16.0297 8.32293 16.0564 8.2925 16.0881 8.26809C16.1199 8.24368 16.1562 8.22577 16.1949 8.21538C16.2336 8.20498 16.274 8.20232 16.3137 8.20752C16.3534 8.21273 16.3917 8.22571 16.4264 8.24573L17.7469 9.00763C17.8052 9.04111 17.8508 9.09292 17.8766 9.155C17.9024 9.21708 17.907 9.28594 17.8896 9.35088C17.8722 9.41581 17.8338 9.47317 17.7804 9.51403C17.727 9.55488 17.6616 9.57694 17.5944 9.57678ZM16.6112 7.55653C16.5304 7.55653 16.4528 7.52442 16.3957 7.46725C16.3385 7.41009 16.3064 7.33256 16.3064 7.25171C16.3064 7.17087 16.3385 7.09334 16.3957 7.03618C16.4528 6.97901 16.5304 6.9469 16.6112 6.9469L18.1362 6.94633C18.2147 6.94969 18.289 6.98325 18.3434 7.04002C18.3978 7.09679 18.4282 7.17237 18.4282 7.25101C18.4283 7.32964 18.3979 7.40526 18.3436 7.46208C18.2892 7.51889 18.215 7.55253 18.1364 7.55596L16.6112 7.55653ZM16.2742 6.29762C16.2071 6.29755 16.1419 6.27536 16.0886 6.23449C16.0354 6.19361 15.9972 6.13633 15.9798 6.07151C15.9624 6.00669 15.9669 5.93796 15.9925 5.87594C16.0182 5.81393 16.0635 5.7621 16.1216 5.72848L17.4421 4.966C17.4768 4.94587 17.5151 4.93279 17.5548 4.9275C17.5945 4.92222 17.6349 4.92483 17.6736 4.93519C17.7123 4.94555 17.7486 4.96345 17.7803 4.98787C17.8121 5.01229 17.8388 5.04275 17.8587 5.07749C17.8788 5.11215 17.8919 5.15044 17.8971 5.19015C17.9024 5.22986 17.8998 5.27022 17.8894 5.30892C17.8791 5.34762 17.8612 5.3839 17.8368 5.41567C17.8124 5.44745 17.7819 5.47409 17.7472 5.49409L16.4264 6.25713C16.3802 6.28401 16.3276 6.29799 16.2742 6.29762ZM15.3529 5.37661C15.2993 5.37652 15.2467 5.36235 15.2004 5.33552C15.154 5.30869 15.1156 5.27015 15.0888 5.22376C15.0621 5.17737 15.048 5.12476 15.048 5.07121C15.048 5.01766 15.0621 4.96506 15.0888 4.91867L15.851 3.59816C15.8928 3.53102 15.9591 3.48274 16.0359 3.46352C16.1126 3.4443 16.1938 3.45564 16.2623 3.49514C16.3309 3.53464 16.3814 3.59923 16.4032 3.67526C16.4251 3.7513 16.4165 3.83285 16.3794 3.9027L15.6175 5.22377C15.5907 5.27026 15.5521 5.30887 15.5057 5.3357C15.4592 5.36254 15.4065 5.37665 15.3529 5.37661ZM10.8034 21.4282C9.98988 21.4282 9.44354 20.7889 9.44354 20.1924C9.4423 20.1516 9.44926 20.1109 9.46402 20.0728C9.47879 20.0347 9.50105 20 9.52949 19.9707C9.55794 19.9413 9.59198 19.918 9.6296 19.9021C9.66722 19.8862 9.70765 19.878 9.74851 19.878C9.78936 19.878 9.82979 19.8862 9.86742 19.9021C9.90504 19.918 9.93908 19.9413 9.96752 19.9707C9.99596 20 10.0182 20.0347 10.033 20.0728C10.0478 20.1109 10.0547 20.1516 10.0535 20.1924C10.0535 20.4536 10.3386 20.8183 10.8031 20.8183C11.421 20.8183 11.6292 20.2771 11.6292 20.0302C11.6292 19.3892 10.6175 19.382 10.5741 19.382C10.4956 19.3786 10.4214 19.345 10.367 19.2882C10.3126 19.2314 10.2822 19.1558 10.2822 19.0772C10.2822 18.9986 10.3126 18.923 10.367 18.8662C10.4214 18.8094 10.4956 18.7758 10.5741 18.7724C11.0634 18.7724 11.429 18.4299 11.429 18.1243C11.429 17.7456 10.9913 17.7048 10.8031 17.7048C10.4444 17.7048 10.1299 17.883 10.1299 18.0863C10.1265 18.165 10.0929 18.2393 10.036 18.2937C9.97916 18.3481 9.90349 18.3785 9.82478 18.3785C9.74607 18.3785 9.6704 18.3481 9.61356 18.2937C9.55671 18.2393 9.52308 18.165 9.51968 18.0863C9.51968 17.53 10.0837 17.0949 10.8034 17.0949C11.5428 17.0949 12.0395 17.5086 12.0395 18.124C12.0395 18.4647 11.8718 18.7789 11.6058 19.0085C11.9796 19.2107 12.24 19.5454 12.24 20.0304C12.2397 20.5939 11.7829 21.4282 10.8034 21.4282Z" fill="white"/>
<path d="M24.0423 3.50969L22.7857 5.6269L29.1718 5.60969L27.7603 6.29821L27.7431 19.1048L29.8603 18.4507V5.6269L33.7677 5.60969L35.1275 3.50969H24.0423ZM37.0726 8.43264L34.8693 9.32772V19.1392L37.1587 18.0892V11.0835C37.8931 10.131 38.5988 9.74084 39.2759 9.91297C39.9529 10.0966 40.3316 10.6072 40.412 11.4449L42.5292 10.0679C42.38 9.10395 41.7201 8.55313 40.5497 8.41543C39.3906 8.27772 38.2259 8.98346 37.0554 10.5326L37.0726 8.43264ZM46.1439 3.33755L43.9751 4.35313V6.83182L46.1439 5.93674V3.33755ZM46.1611 8.48428L43.9062 9.31051V19.0359L46.1611 18.2441V8.48428ZM50.671 22.4269L48.5193 23.2359V9.19002L50.671 8.48428L50.6538 9.72363C52.1111 8.36953 53.5915 8.01379 55.0948 8.65641C56.6095 9.28756 57.6021 10.372 58.0726 11.9097C58.5431 13.4474 58.2964 14.9105 57.3325 16.299C56.38 17.6876 55.2784 18.5712 54.0275 18.9499C52.7767 19.3285 51.6521 19.2253 50.6538 18.64L50.671 22.4269ZM53.5284 17.6589C54.5497 17.8654 55.4046 17.5613 56.0931 16.7466C56.7816 15.9318 56.9021 14.8244 56.4546 13.4244C56.0185 12.0244 55.2439 11.072 54.1308 10.5671C53.0177 10.0621 51.8644 10.0507 50.671 10.5326L50.6538 16.7294L51.1357 16.2818C51.7095 17.0048 52.507 17.4638 53.5284 17.6589ZM63.8734 8.381C63.0702 8.48428 62.4562 8.66215 62.0316 8.91461C61.6071 9.16707 61.2112 9.50559 60.8439 9.93018C60.4767 10.3662 60.2874 10.94 60.2759 11.6515C60.253 12.363 60.4997 12.9425 61.0161 13.39C61.5325 13.8261 62.5251 14.2966 63.9939 14.8015C65.4513 15.2949 66.2603 15.7826 66.421 16.2646C66.5702 16.7466 66.4612 17.1482 66.0939 17.4695C65.7267 17.7908 65.2103 17.9113 64.5448 17.831C63.8792 17.7507 63.2997 17.5441 62.8062 17.2113C62.3128 16.8785 61.9054 16.4884 61.5841 16.0408C61.2743 15.6048 61.0792 15.2261 60.9989 14.9048L59.1743 16.2646C59.4382 16.8613 59.771 17.3605 60.1726 17.7622C60.5743 18.1638 61.0792 18.4908 61.6874 18.7433C62.2956 18.9843 63.0243 19.1277 63.8734 19.1736C64.7341 19.2081 65.4972 18.99 66.1628 18.5195C66.8169 18.049 67.3218 17.5384 67.6775 16.9876C68.0333 16.4482 68.1997 15.8974 68.1767 15.3351C68.1538 14.7843 67.9071 14.2736 67.4366 13.8031C66.9546 13.3212 65.9333 12.8163 64.3726 12.2884C62.8005 11.7605 61.9857 11.2556 61.9284 10.7736C61.8595 10.2802 62.1349 9.9474 62.7546 9.77526C63.3743 9.60313 64.1087 9.74084 64.9579 10.1884C65.7956 10.6474 66.1915 11.0089 66.1456 11.2728L67.6259 9.70641C67.3161 9.21297 66.8169 8.84002 66.1284 8.58756C65.4284 8.34657 64.6767 8.27772 63.8734 8.381ZM78.6595 18.2097V8.39821L76.3702 9.32772V16.4367C75.7964 17.1597 74.953 17.4925 73.8398 17.4351C72.7382 17.3777 72.1415 16.7982 72.0497 15.6966L72.0669 8.43264L69.8292 9.56871V16.0925C69.8292 17.1826 70.2079 17.9802 70.9653 18.4851C71.7226 19.0015 72.5202 19.1908 73.3579 19.0531C74.1956 18.9154 75.2399 18.2269 76.4907 16.9876V19.7933C76.5366 20.8835 76.3587 21.6179 75.9571 21.9966C75.5669 22.3753 74.9071 22.513 73.9776 22.4097C73.048 22.2949 72.1128 21.5663 71.1718 20.2236L69.6915 22.3064C71.8603 24.1654 73.903 24.4408 75.8194 23.1327C77.7243 21.813 78.671 20.172 78.6595 18.2097ZM87.0423 3.40641C86.0784 3.46378 85.1317 3.79657 84.2021 4.40477C83.2841 5.01297 82.5038 5.70723 81.8612 6.48756C81.2185 7.26789 80.7538 8.26625 80.4669 9.48264C80.18 10.699 80.1858 12.0359 80.4841 13.4933C80.771 14.9622 81.471 16.213 82.5841 17.2458C83.6858 18.2785 84.9366 18.8753 86.3366 19.0359C87.7366 19.1966 89.0046 18.7835 90.1407 17.7966L90.1579 19.1392L92.2407 18.072L92.2579 9.13838L87.7308 9.12117L86.3194 11.0835H90.1923V16.8671C88.5169 17.5097 86.9276 17.3204 85.4243 16.299C83.9095 15.2777 82.9685 14.0671 82.6013 12.6671C82.2456 11.2671 82.2112 9.90149 82.4981 8.57035C82.7849 7.2392 83.4218 6.281 84.4087 5.69575C85.3841 5.09903 86.5431 5.00149 87.8858 5.40313C89.2399 5.81625 90.003 6.54493 90.1751 7.5892L92.3267 6.281C92.2808 5.36297 91.8907 4.68018 91.1563 4.23264C90.4333 3.77362 89.8136 3.50969 89.2972 3.44083C88.7694 3.36051 88.0177 3.34903 87.0423 3.40641ZM98.73 8.29494C97.6858 8.21461 96.5784 8.4728 95.4079 9.06953C94.2489 9.66625 93.7382 10.6818 93.8759 12.1162L96.5612 10.9113C96.4349 9.93592 96.7964 9.36789 97.6456 9.20723C98.5063 9.04658 99.1776 9.19002 99.6595 9.63756C100.13 10.0966 100.331 11.0089 100.262 12.3744C99.7341 12.0302 99.1145 11.8122 98.403 11.7203C97.703 11.6171 96.7677 11.8638 95.5972 12.4605C94.4382 13.0572 93.7153 13.9351 93.4284 15.0941C93.1415 16.2417 93.4456 17.2056 94.3407 17.9859C95.2243 18.7548 96.085 19.122 96.9227 19.0876C97.7489 19.0531 98.3743 18.8753 98.7989 18.554C99.212 18.2212 99.7112 17.7507 100.296 17.1425C100.285 18.1408 100.4 18.8236 100.641 19.1908L102.964 17.9515C102.574 17.481 102.419 16.8958 102.5 16.1958V11.2728C102.534 10.504 102.178 9.83264 101.432 9.25887C100.687 8.69658 99.7858 8.37526 98.73 8.29494ZM100.348 13.2695L100.331 13.8892V16.4712C98.9882 17.5384 97.7776 17.7507 96.6989 17.1081C95.6087 16.4654 94.989 15.6679 94.8399 14.7154C94.7022 13.7744 95.1726 13.2867 96.2513 13.2523C97.3415 13.2179 98.3456 13.6138 99.2636 14.44L100.348 13.2695ZM106.941 8.15723L104.634 9.15559V19.1392L106.992 18.1064V11.0835C107.578 10.3605 108.306 10.0335 109.178 10.1023C110.051 10.1597 110.538 10.7736 110.642 11.9441V19.0876L112.965 18.072V11.1867C113.585 10.3261 114.337 9.97608 115.22 10.1367C116.104 10.2974 116.528 11.1753 116.494 12.7703V19.0876L118.852 18.0204V10.9802C118.657 9.28182 117.814 8.44412 116.322 8.46707C114.819 8.50149 113.648 9.19002 112.81 10.5326C112.489 9.19002 111.663 8.50723 110.332 8.48428C109.012 8.44985 107.882 9.13264 106.941 10.5326V8.15723ZM126.254 8.43264C125.003 8.24903 123.838 8.6392 122.76 9.60313C121.681 10.5671 120.992 11.6917 120.694 12.9769C120.396 14.2622 120.447 15.3753 120.849 16.3163C121.251 17.2572 121.784 17.94 122.45 18.3646C123.115 18.8007 123.901 19.0474 124.808 19.1048C125.714 19.1622 126.61 18.8007 127.493 18.0204C128.377 17.2515 129.083 16.3679 129.61 15.3695L129.438 15.249C128.233 16.5113 127.011 17.1138 125.772 17.0564C124.544 16.999 123.735 16.6146 123.345 15.9031L126.684 14.0613C128.348 12.9482 129.002 11.7835 128.646 10.5671C128.291 9.3392 127.493 8.62772 126.254 8.43264ZM122.433 11.2728C122.708 10.699 123.196 10.263 123.896 9.96461C124.596 9.66625 125.261 9.8269 125.892 10.4466C126.523 11.0548 126.742 11.7548 126.546 12.5466C126.351 13.3499 125.158 14.3081 122.966 15.4212C122.622 14.813 122.375 14.113 122.226 13.3212C122.088 12.5408 122.157 11.8581 122.433 11.2728ZM135.136 8.381C134.333 8.48428 133.719 8.66215 133.294 8.91461C132.858 9.16707 132.462 9.50559 132.106 9.93018C131.739 10.3662 131.544 10.94 131.521 11.6515C131.51 12.363 131.762 12.9425 132.278 13.39C132.795 13.8261 133.782 14.2966 135.239 14.8015C136.708 15.2949 137.523 15.7826 137.683 16.2646C137.833 16.7466 137.724 17.1482 137.356 17.4695C136.989 17.7908 136.473 17.9113 135.807 17.831C135.142 17.7507 134.562 17.5441 134.069 17.2113C133.575 16.8785 133.168 16.4884 132.846 16.0408C132.537 15.6048 132.342 15.2261 132.261 14.9048L130.437 16.2646C130.701 16.8613 131.033 17.3605 131.435 17.7622C131.837 18.1638 132.342 18.4908 132.95 18.7433C133.558 18.9843 134.287 19.1277 135.136 19.1736C135.996 19.2081 136.76 18.99 137.425 18.5195C138.079 18.049 138.584 17.5384 138.94 16.9876C139.296 16.4482 139.462 15.8974 139.439 15.3351C139.416 14.7843 139.164 14.2736 138.682 13.8031C138.211 13.3212 137.196 12.8163 135.635 12.2884C134.063 11.7605 133.242 11.2556 133.174 10.7736C133.116 10.2802 133.397 9.9474 134.017 9.77526C134.637 9.60313 135.365 9.74084 136.203 10.1884C137.052 10.6474 137.454 11.0089 137.408 11.2728L138.888 9.70641C138.578 9.21297 138.074 8.84002 137.374 8.58756C136.685 8.34657 135.939 8.27772 135.136 8.381Z" fill="white"/>
</g>
<defs>
<clipPath id="clip0_1112_229732">
<rect width="140" height="24" fill="white" transform="translate(0.5 0.766113)"/>
</clipPath>
</defs>
</svg>
