<svg width="138" height="160" viewBox="0 0 138 160" fill="none" xmlns="http://www.w3.org/2000/svg">
<g filter="url(#filter0_d_946_661216)">
<path d="M77.6062 49.3036C71.3138 46.6069 65.9449 46.6 64.047 46.9337C61.3659 47.0761 53.5184 35.7498 46.3552 27.9546C39.192 20.1594 33.8548 18.9655 28.3771 21.0021C21.2139 26.6905 24.7955 32.098 26.1298 34.4857C27.4641 36.8734 43.8972 55.4836 49.3047 62.9979C43.3354 70.2313 46.2849 78.5181 48.8833 84.2065C40.5263 91.791 42.1416 92.0017 47.2682 98.8839C51.3694 104.39 67.2829 116.394 74.7269 121.708L73.6033 123.183C75.1249 124.33 79.6007 127.635 85.3312 131.68C97.5788 124.826 109.162 107.616 113.422 99.8671L106.821 91.5101C106.493 91.3228 105.388 91.3275 103.59 92.8444C100.851 89.3331 99.166 81.3272 98.8851 76.622C98.6042 71.9167 99.5873 66.7199 98.3935 63.7002C94.8821 55.7645 85.4717 52.6745 77.6062 49.3036Z" fill="#F2CFA9"/>
</g>
<path d="M74.2619 120.832L75.5682 121.334C81.2981 114.805 97.6735 100.736 103.554 91.9654C96.7796 86.0319 99.2682 79.2459 98.7151 68.1854C98.1621 57.125 92.0096 56.572 80.0507 50.7653C70.4835 46.1199 65.3726 46.8019 64.0131 47.7236C71.309 54.9666 86.4844 70.3643 88.8185 74.0112C91.7361 78.5699 89.9126 84.4963 92.0096 88.7815C94.1066 93.0666 94.6536 96.8048 93.0125 97.8989C82.0716 107.454 75.8727 117.185 74.2619 120.832Z" fill="#EDC39B"/>
<path d="M105.812 91.3051C103.138 94.9934 83.2158 114.164 73.5339 123.25C74.2831 123.673 78.0516 126.109 84.8288 130.858C88.5632 130.305 106.974 111.901 113.309 100.924C113.175 100.828 111.528 98.9583 105.812 91.3051Z" fill="#FDF6FE"/>
<path d="M49.02 92.71C46.9342 95.8388 47.5715 99.1703 48.1509 100.445C45.5435 98.2723 38.1494 92.4999 45.8669 86.8508C50.5451 83.4263 48.561 83.3122 45.8669 76.7071C43.7116 71.4229 47.3978 65.0147 49.7154 63.4214L55.7991 71.1564C54.2347 71.4461 51.3841 73.5551 52.4965 79.6735C53.8871 87.3216 51.6273 88.7991 49.02 92.71Z" fill="#EDC39B"/>
<path d="M39.8445 27.7437C42.2379 32.5825 39.2287 35.34 37.9193 36.6408C35.682 38.4358 30.3203 37.0453 27.6956 32.7386C24.6516 27.7437 29.4905 22.5147 32.5602 22.3066C36.4328 22.044 37.8829 23.7779 39.8445 27.7437Z" fill="#F6E3CF"/>
<path d="M35.5153 37.4989C32.029 38.0869 28.9908 34.7966 27.3667 32.5424C32.3232 36.7428 36.6242 37.23 38.7076 32.9625C40.791 28.6949 37.0021 23.9548 34.8473 22.1182C36.2605 22.8585 39.5618 25.8365 40.2617 28.6361C41.1366 32.1356 39.5923 36.8112 35.5153 37.4989Z" fill="#A7774F"/>
<path fill-rule="evenodd" clip-rule="evenodd" d="M100.367 71.6683C100.409 70.1826 100.45 68.7085 100.45 67.2599C100.45 62.4644 96.6663 58.5775 92.1976 55.5565C87.6661 52.4929 82.0793 50.0846 77.8308 48.3352C70.8765 45.4717 64.8223 45.7221 62.8823 46.3041L64.2374 48.2177C65.6308 47.7997 70.4236 47.4481 77.0693 50.1846C81.3208 51.9352 86.734 54.2769 91.0775 57.2133C95.4838 60.1922 98.4501 63.5554 98.4501 67.2599C98.4501 68.5922 98.411 70.0044 98.3708 71.4589C98.2863 74.5163 98.1967 77.7607 98.4535 80.8429C98.8364 85.4378 99.9958 89.9505 103.215 93.4382L104.685 92.0816C101.904 89.0693 100.814 85.082 100.447 80.6769C100.199 77.702 100.284 74.6615 100.367 71.6683Z" fill="#74401B"/>
<path fill-rule="evenodd" clip-rule="evenodd" d="M104.868 111.823L95.6739 101.07L94.8284 102.07L104.226 112.95L104.868 111.823Z" fill="#74401B"/>
<path fill-rule="evenodd" clip-rule="evenodd" d="M85.4749 133.029L86.081 132.535C89.694 129.595 95.426 124.491 100.913 118.711C106.381 112.95 111.685 106.436 114.357 100.681L114.638 100.076L114.187 99.5842C109.817 94.8166 107.435 91.344 106.818 90.2638L106.143 89.0823L105.217 90.0794C100.889 94.7407 94.1468 101.857 87.9903 108.055C84.9113 111.155 81.9858 114.018 79.5852 116.227C78.3843 117.332 77.3226 118.267 76.4434 118.983C75.5454 119.714 74.6902 120.232 74.2975 120.428L74.6636 120.687C70.7511 117.923 64.7208 113.396 58.9076 108.484C52.8909 103.4 47.1961 97.9774 44.2791 93.7012C43.4436 92.4433 43.7958 90.8207 45.0618 88.9757C46.2941 87.1797 48.1699 85.5344 49.5264 84.5769L50.2599 84.0591L49.8239 83.2742C48.6371 81.138 47.3092 77.4504 47.009 73.6928C46.7077 69.9203 47.4533 66.3134 50.1047 64.0156L50.9659 63.524L48.4158 59.5497C45.8751 55.4845 41.2134 49.6116 30.6731 38.5694C26.5897 34.2916 25.3733 30.7746 25.3623 28.2056C25.3511 25.6277 26.5494 23.8608 27.5745 23.0408L27.6177 23.0062L27.6569 22.967C29.1658 21.4581 33.9932 19.0733 40.3731 23.5769C43.9319 26.0889 46.95 29.6877 51.0498 34.5764C51.6917 35.3417 52.36 36.1386 53.0611 36.968C58.2056 43.0535 65.6821 50.2531 76.4863 59.5497C65.7905 50.3463 59.694 41.7162 54.5885 35.6768C53.8991 34.8613 53.2368 34.071 52.5959 33.3062C48.5227 28.4453 45.3145 24.6168 41.5265 21.9429C34.35 16.8771 28.4717 19.3646 26.2821 21.5138C24.8211 22.7044 23.3485 25.0234 23.3623 28.2142C23.3762 31.4452 24.9098 35.4282 29.2264 39.9504C39.1145 50.3093 45.1701 58.1752 48.5482 62.7291C45.7364 65.6159 44.7132 70.0681 45.0154 73.852C45.3068 77.5003 46.4809 81.0641 47.6675 83.4656C46.2849 84.5361 44.6092 86.1003 43.4127 87.8441C42.0383 89.8471 41.0566 92.473 42.6177 94.8146L42.6234 94.8233C45.7074 99.3463 51.594 104.922 57.6168 110.011C63.1881 114.719 68.9524 119.073 72.9042 121.891L71.9273 122.868L85.4749 133.029ZM74.9721 122.652L75.5491 122.075C76.135 121.755 76.8758 121.21 77.7063 120.533C78.6291 119.782 79.7237 118.818 80.9395 117.699C83.3722 115.46 86.3216 112.573 89.4093 109.465C95.1812 103.654 101.46 97.044 105.799 92.3902C106.915 94.049 109.043 96.8848 112.257 100.436C109.643 105.742 104.704 111.812 99.462 117.334C94.3376 122.732 88.9933 127.536 85.422 130.489L74.9721 122.652Z" fill="#74401B"/>
<path d="M55.7989 71.1578C54.6999 69.4726 49.8748 64.4995 47.0403 60.6512C46.6237 58.9466 46.1394 56.4183 46.8232 57.2975C47.6781 58.3966 52.807 66.2426 55.7989 71.1578Z" fill="#74401B"/>
<defs>
<filter id="filter0_d_946_661216" x="0.0479736" y="0.124939" width="137.374" height="159.555" filterUnits="userSpaceOnUse" color-interpolation-filters="sRGB">
<feFlood flood-opacity="0" result="BackgroundImageFix"/>
<feColorMatrix in="SourceAlpha" type="matrix" values="0 0 0 0 0 0 0 0 0 0 0 0 0 0 0 0 0 0 127 0" result="hardAlpha"/>
<feOffset dy="4"/>
<feGaussianBlur stdDeviation="12"/>
<feComposite in2="hardAlpha" operator="out"/>
<feColorMatrix type="matrix" values="0 0 0 0 0 0 0 0 0 0 0 0 0 0 0 0 0 0 0.8 0"/>
<feBlend mode="normal" in2="BackgroundImageFix" result="effect1_dropShadow_946_661216"/>
<feBlend mode="normal" in="SourceGraphic" in2="effect1_dropShadow_946_661216" result="shape"/>
</filter>
</defs>
</svg>
