<svg width="138" height="160" viewBox="0 0 138 160" fill="none" xmlns="http://www.w3.org/2000/svg">
<g filter="url(#filter0_d_950_833780)">
<path d="M77.6066 49.3036C71.3142 46.6069 65.9453 46.6 64.0474 46.9337C61.3662 47.0761 53.5187 35.7498 46.3556 27.9546C39.1924 20.1594 33.8552 18.9655 28.3775 21.0021C21.2143 26.6905 24.7958 32.098 26.1302 34.4857C27.4645 36.8734 43.8976 55.4836 49.3051 62.9979C43.3358 70.2313 46.2853 78.5181 48.8837 84.2065C40.5267 91.791 42.1419 92.0017 47.2685 98.8839C51.3698 104.39 67.2832 116.394 74.7273 121.708L73.6037 123.183C75.1253 124.33 79.6011 127.635 85.3316 131.68C97.5792 124.826 109.162 107.616 113.422 99.8671L106.821 91.5101C106.493 91.3228 105.388 91.3275 103.591 92.8444C100.852 89.3331 99.1663 81.3272 98.8854 76.622C98.6045 71.9167 99.5877 66.7199 98.3938 63.7002C94.8825 55.7645 85.472 52.6745 77.6066 49.3036Z" fill="#F2CFA9"/>
</g>
<path d="M74.2621 120.832L75.5683 121.334C81.2982 114.805 97.6736 100.736 103.554 91.9654C96.7797 86.0319 99.2683 79.2459 98.7153 68.1855C98.1622 57.125 92.0097 56.572 80.0508 50.7653C70.4836 46.1199 65.3727 46.8019 64.0132 47.7236C71.3091 54.9666 86.4846 70.3643 88.8186 74.0112C91.7362 78.57 89.9127 84.4963 92.0097 88.7815C94.1067 93.0667 94.6538 96.8048 93.0126 97.8989C82.0717 107.454 75.8728 117.185 74.2621 120.832Z" fill="#EDC39B"/>
<path d="M105.812 91.3051C103.138 94.9934 83.216 114.164 73.5342 123.25C74.2834 123.673 78.0518 126.109 84.8291 130.858C88.5635 130.305 106.974 111.901 113.31 100.924C113.175 100.828 111.529 98.9583 105.812 91.3051Z" fill="#FDF6FE"/>
<path d="M49.02 92.71C46.9342 95.8388 47.5715 99.1703 48.1509 100.445C45.5435 98.2723 38.1494 92.4999 45.8669 86.8508C50.5451 83.4263 48.561 83.3122 45.8669 76.7071C43.7116 71.4229 47.3978 65.0147 49.7154 63.4214L55.7991 71.1563C54.2347 71.446 51.3841 73.5551 52.4965 79.6735C53.8871 87.3216 51.6273 88.7991 49.02 92.71Z" fill="#EDC39B"/>
<path d="M39.8449 27.7437C42.2383 32.5825 39.2291 35.34 37.9197 36.6408C35.6824 38.4358 30.3207 37.0453 27.696 32.7386C24.6519 27.7437 29.4909 22.5147 32.5606 22.3066C36.4332 22.044 37.8833 23.7779 39.8449 27.7437Z" fill="#F6E3CF"/>
<path d="M35.5153 37.4989C32.029 38.0869 28.9908 34.7966 27.3667 32.5424C32.3232 36.7428 36.6242 37.23 38.7076 32.9625C40.791 28.6949 37.0021 23.9548 34.8473 22.1182C36.2605 22.8585 39.5618 25.8365 40.2617 28.6361C41.1366 32.1356 39.5923 36.8112 35.5153 37.4989Z" fill="#A7774F"/>
<path fill-rule="evenodd" clip-rule="evenodd" d="M100.367 71.6683C100.409 70.1826 100.45 68.7085 100.45 67.2599C100.45 62.4644 96.6663 58.5775 92.1976 55.5564C87.6661 52.4929 82.0793 50.0846 77.8308 48.3352C70.8765 45.4717 64.8223 45.7221 62.8823 46.3041L64.2374 48.2177C65.6308 47.7997 70.4236 47.4481 77.0693 50.1846C81.3208 51.9352 86.734 54.2769 91.0775 57.2133C95.4838 60.1922 98.4501 63.5554 98.4501 67.2599C98.4501 68.5922 98.411 70.0044 98.3708 71.4589C98.2863 74.5163 98.1967 77.7607 98.4535 80.8429C98.8364 85.4378 99.9958 89.9505 103.215 93.4382L104.685 92.0816C101.904 89.0693 100.814 85.082 100.447 80.6768C100.199 77.702 100.284 74.6615 100.367 71.6683Z" fill="#74401B"/>
<path fill-rule="evenodd" clip-rule="evenodd" d="M104.868 111.823L95.6742 101.07L94.8286 102.07L104.226 112.95L104.868 111.823Z" fill="#74401B"/>
<path fill-rule="evenodd" clip-rule="evenodd" d="M85.475 133.029L86.0811 132.535C89.6941 129.595 95.4261 124.491 100.913 118.711C106.381 112.95 111.685 106.436 114.357 100.681L114.638 100.076L114.187 99.5842C109.817 94.8166 107.435 91.344 106.818 90.2638L106.143 89.0823L105.217 90.0794C100.889 94.7407 94.1469 101.857 87.9905 108.055C84.9115 111.155 81.986 114.018 79.5853 116.227C78.3845 117.332 77.3227 118.267 76.4435 118.983C75.5455 119.714 74.6904 120.232 74.2977 120.428L74.6637 120.687C70.7512 117.923 64.7209 113.396 58.9078 108.484C52.8911 103.4 47.1962 97.9774 44.2792 93.7012C43.4437 92.4433 43.7959 90.8207 45.0619 88.9757C46.2942 87.1797 48.17 85.5344 49.5265 84.5769L50.26 84.0591L49.824 83.2742C48.6372 81.138 47.3093 77.4504 47.0092 73.6928C46.7079 69.9203 47.4534 66.3134 50.1048 64.0156L50.9661 63.524L48.4159 59.5497C45.8752 55.4845 41.2135 49.6116 30.6732 38.5694C26.5899 34.2916 25.3735 30.7746 25.3624 28.2056C25.3513 25.6277 26.5495 23.8608 27.5746 23.0408L27.6178 23.0062L27.657 22.967C29.1659 21.4581 33.9933 19.0733 40.3733 23.5769C43.932 26.0889 46.9501 29.6877 51.05 34.5764C51.6918 35.3417 52.3602 36.1386 53.0612 36.968C58.2057 43.0535 65.6822 50.2531 76.4864 59.5497C65.7906 50.3463 59.6941 41.7162 54.5886 35.6768C53.8993 34.8613 53.2369 34.071 52.5961 33.3062C48.5228 28.4453 45.3147 24.6168 41.5266 21.9429C34.3502 16.8771 28.4718 19.3646 26.2822 21.5138C24.8212 22.7044 23.3486 25.0234 23.3624 28.2142C23.3763 31.4452 24.9099 35.4282 29.2265 39.9504C39.1147 50.3093 45.1702 58.1752 48.5484 62.7291C45.7365 65.6159 44.7133 70.0681 45.0155 73.852C45.3069 77.5003 46.4811 81.0641 47.6676 83.4656C46.285 84.5361 44.6093 86.1003 43.4128 87.8441C42.0384 89.8471 41.0567 92.473 42.6178 94.8146L42.6236 94.8233C45.7075 99.3463 51.5941 104.922 57.6169 110.011C63.1882 114.719 68.9525 119.073 72.9044 121.891L71.9274 122.868L85.475 133.029ZM74.9722 122.652L75.5492 122.075C76.1351 121.755 76.8759 121.21 77.7064 120.533C78.6293 119.782 79.7238 118.818 80.9396 117.699C83.3723 115.46 86.3218 112.573 89.4094 109.465C95.1813 103.654 101.461 97.044 105.799 92.3902C106.915 94.049 109.043 96.8848 112.257 100.436C109.643 105.742 104.704 111.812 99.4621 117.334C94.3378 122.732 88.9934 127.536 85.4221 130.489L74.9722 122.652Z" fill="#74401B"/>
<path d="M55.7991 71.1578C54.7001 69.4726 49.8751 64.4995 47.0405 60.6512C46.6239 58.9466 46.1396 56.4183 46.8235 57.2975C47.6783 58.3966 52.8072 66.2426 55.7991 71.1578Z" fill="#74401B"/>
<defs>
<filter id="filter0_d_950_833780" x="0.0483398" y="0.124939" width="137.374" height="159.555" filterUnits="userSpaceOnUse" color-interpolation-filters="sRGB">
<feFlood flood-opacity="0" result="BackgroundImageFix"/>
<feColorMatrix in="SourceAlpha" type="matrix" values="0 0 0 0 0 0 0 0 0 0 0 0 0 0 0 0 0 0 127 0" result="hardAlpha"/>
<feOffset dy="4"/>
<feGaussianBlur stdDeviation="12"/>
<feComposite in2="hardAlpha" operator="out"/>
<feColorMatrix type="matrix" values="0 0 0 0 0 0 0 0 0 0 0 0 0 0 0 0 0 0 0.8 0"/>
<feBlend mode="normal" in2="BackgroundImageFix" result="effect1_dropShadow_950_833780"/>
<feBlend mode="normal" in="SourceGraphic" in2="effect1_dropShadow_950_833780" result="shape"/>
</filter>
</defs>
</svg>
