<svg width="138" height="160" viewBox="0 0 138 160" fill="none" xmlns="http://www.w3.org/2000/svg">
<g filter="url(#filter0_d_946_740803)">
<path d="M77.6063 102.695C71.3139 105.392 65.945 105.399 64.0471 105.065C61.366 104.923 53.5185 116.249 46.3553 124.044C39.1922 131.84 33.8549 133.033 28.3772 130.997C21.2141 125.309 24.7956 119.901 26.1299 117.513C27.4642 115.126 43.8974 96.5154 49.3048 89.0011C43.3355 81.7677 46.2851 73.4809 48.8835 67.7925C40.5264 60.208 42.1417 59.9973 47.2683 53.1151C51.3695 47.6093 67.283 35.6051 74.7271 30.2913L73.6034 28.8165C75.125 27.6695 79.6008 24.3641 85.3314 20.319C97.579 27.1732 109.162 44.3835 113.422 52.1319L106.821 60.4889C106.493 60.6762 105.388 60.6715 103.59 59.1546C100.852 62.666 99.1661 70.6719 98.8852 75.3771C98.6043 80.0823 99.5875 85.2791 98.3936 88.2989C94.8822 96.2345 85.4718 99.3245 77.6063 102.695Z" fill="#F2CFA9"/>
</g>
<path d="M74.2621 31.1675L75.5683 30.6651C81.2982 37.1942 97.6736 51.2633 103.554 60.0336C96.7797 65.9671 99.2683 72.7531 98.7153 83.8136C98.1622 94.874 92.0097 95.427 80.0508 101.234C70.4836 105.879 65.3727 105.197 64.0132 104.275C71.3091 97.0324 86.4846 81.6348 88.8186 77.9878C91.7362 73.4291 89.9127 67.5028 92.0097 63.2176C94.1067 58.9324 94.6538 55.1942 93.0126 54.1001C82.0717 44.5451 75.8728 34.8145 74.2621 31.1675Z" fill="#EDC39B"/>
<path d="M105.812 60.694C103.138 57.0057 83.2158 37.835 73.5339 28.7487C74.2831 28.3261 78.0516 25.8896 84.8288 21.1409C88.5632 21.6941 106.974 40.0984 113.309 51.0752C113.175 51.1713 111.528 53.0407 105.812 60.694Z" fill="#FDF6FE"/>
<path d="M49.0203 59.289C46.9345 56.1602 47.5718 52.8287 48.1511 51.554C45.5437 53.7267 38.1497 59.4991 45.8671 65.1482C50.5453 68.5727 48.5612 68.6868 45.8671 75.2919C43.7118 80.5761 47.3981 86.9843 49.7156 88.5776L55.7993 80.8427C54.2349 80.553 51.3843 78.4439 52.4967 72.3255C53.8873 64.6774 51.6275 63.1999 49.0203 59.289Z" fill="#EDC39B"/>
<path d="M39.8446 124.255C42.238 119.417 39.2289 116.659 37.9195 115.358C35.6822 113.563 30.3204 114.954 27.6958 119.26C24.6517 124.255 29.4906 129.484 32.5603 129.692C36.4329 129.955 37.8831 128.221 39.8446 124.255Z" fill="#F6E3CF"/>
<path d="M35.5156 114.5C32.0293 113.912 28.9911 117.202 27.3669 119.457C32.3234 115.256 36.6245 114.769 38.7079 119.037C40.7912 123.304 37.0024 128.044 34.8475 129.881C36.2608 129.141 39.5621 126.163 40.262 123.363C41.1369 119.863 39.5925 115.188 35.5156 114.5Z" fill="#A7774F"/>
<path fill-rule="evenodd" clip-rule="evenodd" d="M100.368 80.3307C100.409 81.8164 100.45 83.2905 100.45 84.7391C100.45 89.5346 96.6666 93.4215 92.1979 96.4426C87.6664 99.5061 82.0795 101.914 77.8311 103.664C70.8768 106.527 64.8225 106.277 62.8826 105.695L64.2376 103.781C65.631 104.199 70.4238 104.551 77.0696 101.814C81.3211 100.064 86.7342 97.7221 91.0777 94.7857C95.484 91.8068 98.4503 88.4437 98.4503 84.7391C98.4503 83.4068 98.4113 81.9946 98.3711 80.5401C98.2866 77.4827 98.1969 74.2383 98.4538 71.1561C98.8367 66.5612 99.9961 62.0485 103.215 58.5609L104.685 59.9174C101.905 62.9297 100.814 66.9171 100.447 71.3222C100.199 74.297 100.284 77.3375 100.368 80.3307Z" fill="#74401B"/>
<path fill-rule="evenodd" clip-rule="evenodd" d="M104.868 40.1763L95.6742 50.9288L94.8286 49.9288L104.226 39.0495L104.868 40.1763Z" fill="#74401B"/>
<path fill-rule="evenodd" clip-rule="evenodd" d="M85.475 18.9702L86.0811 19.4636C89.6941 22.4044 95.4261 27.5082 100.913 33.2882C106.381 39.0493 111.685 45.5633 114.357 51.318L114.638 51.9231L114.187 52.4149C109.817 57.1824 107.435 60.655 106.818 61.7353L106.143 62.9167L105.217 61.9196C100.889 57.2583 94.1469 50.1419 87.9905 43.9439C84.9115 40.844 81.986 37.9811 79.5853 35.7718C78.3845 34.6668 77.3227 33.7325 76.4435 33.0165C75.5455 32.2853 74.6904 31.7673 74.2977 31.571L74.6637 31.3117C70.7512 34.0758 64.7209 38.6035 58.9078 43.5155C52.8911 48.5995 47.1962 54.0217 44.2792 58.2979C43.4437 59.5557 43.7959 61.1783 45.0619 63.0234C46.2942 64.8194 48.17 66.4646 49.5265 67.4222L50.26 67.9399L49.824 68.7248C48.6372 70.861 47.3093 74.5486 47.0092 78.3062C46.7079 82.0787 47.4534 85.6856 50.1048 87.9834L50.9661 88.475L48.4159 92.4493C45.8752 96.5145 41.2135 102.387 30.6732 113.43C26.5899 117.707 25.3735 121.224 25.3624 123.793C25.3513 126.371 26.5495 128.138 27.5746 128.958L27.6178 128.993L27.657 129.032C29.1659 130.541 33.9933 132.926 40.3733 128.422C43.932 125.91 46.9501 122.311 51.05 117.423C51.6918 116.657 52.3602 115.86 53.0612 115.031C58.2057 108.945 65.6822 101.746 76.4864 92.4493C65.7906 101.653 59.6941 110.283 54.5886 116.322C53.8993 117.138 53.2369 117.928 52.5961 118.693C48.5228 123.554 45.3147 127.382 41.5266 130.056C34.3502 135.122 28.4718 132.634 26.2822 130.485C24.8212 129.295 23.3486 126.976 23.3624 123.785C23.3763 120.554 24.9099 116.571 29.2265 112.049C39.1147 101.69 45.1702 93.8238 48.5484 89.2699C45.7365 86.3831 44.7133 81.9309 45.0155 78.147C45.3069 74.4988 46.4811 70.9349 47.6676 68.5335C46.285 67.4629 44.6093 65.8987 43.4128 64.1549C42.0384 62.1519 41.0567 59.526 42.6178 57.1844L42.6236 57.1758C45.7075 52.6527 51.5941 47.077 57.6169 41.9878C63.1882 37.2801 68.9525 32.9259 72.9044 30.1079L71.9274 29.1309L85.475 18.9702ZM74.9722 29.3473L75.5492 29.9243C76.1351 30.244 76.8759 30.7894 77.7064 31.4657C78.6293 32.2172 79.7238 33.1813 80.9396 34.3002C83.3723 36.5388 86.3218 39.4259 89.4094 42.5344C95.1813 48.3453 101.461 54.955 105.799 59.6088C106.915 57.9501 109.043 55.1143 112.257 51.5635C109.643 46.2566 104.704 40.1874 99.4621 34.6651C94.3378 29.2667 88.9934 24.4629 85.4221 21.5099L74.9722 29.3473Z" fill="#74401B"/>
<path d="M55.7991 80.8412C54.7001 82.5264 49.8751 87.4995 47.0405 91.3478C46.6239 93.0525 46.1396 95.5808 46.8235 94.7015C47.6783 93.6025 52.8072 85.7564 55.7991 80.8412Z" fill="#74401B"/>
<defs>
<filter id="filter0_d_946_740803" x="0.0480957" y="0.319031" width="137.374" height="159.555" filterUnits="userSpaceOnUse" color-interpolation-filters="sRGB">
<feFlood flood-opacity="0" result="BackgroundImageFix"/>
<feColorMatrix in="SourceAlpha" type="matrix" values="0 0 0 0 0 0 0 0 0 0 0 0 0 0 0 0 0 0 127 0" result="hardAlpha"/>
<feOffset dy="4"/>
<feGaussianBlur stdDeviation="12"/>
<feComposite in2="hardAlpha" operator="out"/>
<feColorMatrix type="matrix" values="0 0 0 0 0 0 0 0 0 0 0 0 0 0 0 0 0 0 0.8 0"/>
<feBlend mode="normal" in2="BackgroundImageFix" result="effect1_dropShadow_946_740803"/>
<feBlend mode="normal" in="SourceGraphic" in2="effect1_dropShadow_946_740803" result="shape"/>
</filter>
</defs>
</svg>
