<svg width="138" height="161" viewBox="0 0 138 161" fill="none" xmlns="http://www.w3.org/2000/svg">
<g filter="url(#filter0_d_907_479130)">
<path d="M77.6063 103.196C71.3139 105.893 65.945 105.899 64.0471 105.566C61.366 105.423 53.5185 116.75 46.3553 124.545C39.1922 132.34 33.8549 133.534 28.3772 131.497C21.2141 125.809 24.7956 120.402 26.1299 118.014C27.4642 115.626 43.8974 97.0159 49.3048 89.5016C43.3355 82.2682 46.2851 73.9814 48.8835 68.293C40.5264 60.7085 42.1417 60.4978 47.2683 53.6156C51.3695 48.1098 67.283 36.1056 74.7271 30.7918L73.6034 29.317C75.125 28.17 79.6008 24.8646 85.3314 20.8195C97.579 27.6737 109.162 44.884 113.422 52.6324L106.821 60.9894C106.493 61.1767 105.388 61.172 103.59 59.6551C100.852 63.1665 99.1661 71.1723 98.8852 75.8776C98.6043 80.5828 99.5875 85.7796 98.3936 88.7993C94.8822 96.735 85.4718 99.825 77.6063 103.196Z" fill="#F2CFA9"/>
</g>
<path d="M74.2621 31.668L75.5683 31.1656C81.2982 37.6947 97.6736 51.7638 103.554 60.5341C96.7797 66.4676 99.2683 73.2536 98.7153 84.3141C98.1622 95.3745 92.0097 95.9275 80.0508 101.734C70.4836 106.38 65.3727 105.698 64.0132 104.776C71.3091 97.5329 86.4846 82.1353 88.8186 78.4883C91.7362 73.9296 89.9127 68.0032 92.0097 63.7181C94.1067 59.4329 94.6538 55.6947 93.0126 54.6006C82.0717 45.0456 75.8728 35.315 74.2621 31.668Z" fill="#EDC39B"/>
<path d="M105.812 61.1944C103.138 57.5061 83.2158 38.3355 73.5339 29.2492C74.2831 28.8266 78.0516 26.39 84.8288 21.6414C88.5632 22.1946 106.974 40.5989 113.309 51.5757C113.175 51.6718 111.528 53.5412 105.812 61.1944Z" fill="#FDF6FE"/>
<path d="M49.0203 59.7895C46.9345 56.6607 47.5718 53.3292 48.1511 52.0545C45.5437 54.2273 38.1497 59.9996 45.8671 65.6487C50.5453 69.0732 48.5612 69.1873 45.8671 75.7924C43.7118 81.0766 47.3981 87.4848 49.7156 89.0781L55.7993 81.3432C54.2349 81.0535 51.3843 78.9444 52.4967 72.826C53.8873 65.1779 51.6275 63.7004 49.0203 59.7895Z" fill="#EDC39B"/>
<path d="M39.8446 124.756C42.238 119.917 39.2289 117.159 37.9195 115.859C35.6822 114.064 30.3204 115.454 27.6958 119.761C24.6517 124.756 29.4906 129.985 32.5603 130.193C36.4329 130.455 37.8831 128.722 39.8446 124.756Z" fill="#F6E3CF"/>
<path d="M35.5156 115.001C32.0293 114.413 28.9911 117.703 27.3669 119.957C32.3234 115.757 36.6245 115.269 38.7079 119.537C40.7912 123.805 37.0024 128.545 34.8475 130.381C36.2608 129.641 39.5621 126.663 40.262 123.863C41.1369 120.364 39.5925 115.688 35.5156 115.001Z" fill="#A7774F"/>
<path fill-rule="evenodd" clip-rule="evenodd" d="M100.368 80.8312C100.409 82.3169 100.45 83.791 100.45 85.2396C100.45 90.0351 96.6666 93.922 92.1979 96.9431C87.6664 100.007 82.0795 102.415 77.8311 104.164C70.8768 107.028 64.8225 106.777 62.8826 106.195L64.2376 104.282C65.631 104.7 70.4238 105.051 77.0696 102.315C81.3211 100.564 86.7342 98.2226 91.0777 95.2862C95.484 92.3073 98.4503 88.9441 98.4503 85.2396C98.4503 83.9073 98.4113 82.4951 98.3711 81.0406C98.2866 77.9832 98.1969 74.7388 98.4538 71.6566C98.8367 67.0617 99.9961 62.549 103.215 59.0613L104.685 60.4179C101.905 63.4302 100.814 67.4175 100.447 71.8227C100.199 74.7975 100.284 77.838 100.368 80.8312Z" fill="#74401B"/>
<path fill-rule="evenodd" clip-rule="evenodd" d="M104.868 40.6768L95.6742 51.4293L94.8286 50.4293L104.226 39.55L104.868 40.6768Z" fill="#74401B"/>
<path fill-rule="evenodd" clip-rule="evenodd" d="M85.475 19.4707L86.0811 19.9641C89.6941 22.9049 95.4261 28.0087 100.913 33.7887C106.381 39.5498 111.685 46.0638 114.357 51.8185L114.638 52.4236L114.187 52.9153C109.817 57.6829 107.435 61.1555 106.818 62.2358L106.143 63.4172L105.217 62.4201C100.889 57.7588 94.1469 50.6424 87.9904 44.4443C84.9114 41.3445 81.9859 38.4816 79.5853 36.2723C78.3844 35.1672 77.3227 34.233 76.4435 33.517C75.5455 32.7857 74.6903 32.2678 74.2976 32.0715L74.6637 31.8121C70.7512 34.5762 64.7209 39.1039 58.9077 44.0159C52.891 49.1 47.1962 54.5222 44.2792 58.7984C43.4437 60.0562 43.7959 61.6788 45.0619 63.5238C46.2942 65.3199 48.17 66.9651 49.5265 67.9227L50.26 68.4404L49.824 69.2253C48.6372 71.3615 47.3093 75.0491 47.0091 78.8067C46.7078 82.5792 47.4534 86.1861 50.1048 88.4839L50.966 88.9755L48.4159 92.9498C45.8752 97.015 41.2135 102.888 30.6732 113.93C26.5898 118.208 25.3734 121.725 25.3624 124.294C25.3512 126.872 26.5495 128.639 27.5746 129.459L27.6178 129.493L27.657 129.533C29.1659 131.041 33.9933 133.426 40.3732 128.923C43.932 126.411 46.9501 122.812 51.0499 117.923C51.6918 117.158 52.3601 116.361 53.0612 115.532C58.2057 109.446 65.6822 102.246 76.4864 92.9498C65.7906 102.153 59.6941 110.783 54.5886 116.823C53.8992 117.638 53.2369 118.429 52.596 119.193C48.5228 124.054 45.3146 127.883 41.5266 130.557C34.3501 135.622 28.4718 133.135 26.2822 130.986C24.8212 129.795 23.3486 127.476 23.3624 124.285C23.3763 121.054 24.9099 117.071 29.2265 112.549C39.1146 102.19 45.1702 94.3243 48.5483 89.7704C45.7365 86.8836 44.7133 82.4314 45.0155 78.6475C45.3069 74.9993 46.481 71.4354 47.6676 69.0339C46.285 67.9634 44.6093 66.3992 43.4128 64.6554C42.0384 62.6524 41.0567 60.0265 42.6178 57.6849L42.6235 57.6763C45.7075 53.1532 51.5941 47.5775 57.6169 42.4883C63.1882 37.7806 68.9525 33.4264 72.9043 30.6084L71.9274 29.6314L85.475 19.4707ZM74.9722 29.8478L75.5492 30.4248C76.1351 30.7445 76.8759 31.2899 77.7064 31.9661C78.6292 32.7176 79.7238 33.6818 80.9396 34.8007C83.3722 37.0393 86.3217 39.9264 89.4094 43.0349C95.1813 48.8458 101.461 55.4555 105.799 60.1093C106.915 58.4505 109.043 55.6147 112.257 52.0639C109.643 46.7571 104.704 40.6879 99.4621 35.1656C94.3377 29.7672 88.9934 24.9634 85.4221 22.0104L74.9722 29.8478Z" fill="#74401B"/>
<path d="M55.7991 81.3417C54.7001 83.0269 49.8751 88 47.0405 91.8483C46.6239 93.5529 46.1396 96.0812 46.8235 95.202C47.6783 94.1029 52.8072 86.2569 55.7991 81.3417Z" fill="#74401B"/>
<defs>
<filter id="filter0_d_907_479130" x="0.0480957" y="0.819519" width="137.374" height="159.555" filterUnits="userSpaceOnUse" color-interpolation-filters="sRGB">
<feFlood flood-opacity="0" result="BackgroundImageFix"/>
<feColorMatrix in="SourceAlpha" type="matrix" values="0 0 0 0 0 0 0 0 0 0 0 0 0 0 0 0 0 0 127 0" result="hardAlpha"/>
<feOffset dy="4"/>
<feGaussianBlur stdDeviation="12"/>
<feComposite in2="hardAlpha" operator="out"/>
<feColorMatrix type="matrix" values="0 0 0 0 0 0 0 0 0 0 0 0 0 0 0 0 0 0 0.8 0"/>
<feBlend mode="normal" in2="BackgroundImageFix" result="effect1_dropShadow_907_479130"/>
<feBlend mode="normal" in="SourceGraphic" in2="effect1_dropShadow_907_479130" result="shape"/>
</filter>
</defs>
</svg>
