<svg width="138" height="160" viewBox="0 0 138 160" fill="none" xmlns="http://www.w3.org/2000/svg">
<g filter="url(#filter0_d_929_614321)">
<path d="M77.6062 102.695C71.3138 105.392 65.9449 105.399 64.047 105.065C61.3659 104.923 53.5184 116.249 46.3552 124.044C39.192 131.84 33.8548 133.033 28.3771 130.997C21.2139 125.309 24.7955 119.901 26.1298 117.513C27.4641 115.126 43.8972 96.5154 49.3047 89.0011C43.3354 81.7677 46.2849 73.4809 48.8833 67.7925C40.5263 60.208 42.1416 59.9973 47.2682 53.1151C51.3694 47.6093 67.2829 35.6051 74.7269 30.2913L73.6033 28.8165C75.1249 27.6695 79.6007 24.3641 85.3312 20.319C97.5788 27.1732 109.162 44.3835 113.422 52.1319L106.821 60.4889C106.493 60.6762 105.388 60.6715 103.59 59.1546C100.851 62.666 99.166 70.6719 98.8851 75.3771C98.6042 80.0823 99.5873 85.2791 98.3935 88.2989C94.8821 96.2345 85.4717 99.3245 77.6062 102.695Z" fill="#F2CFA9"/>
</g>
<path d="M74.2619 31.1675L75.5682 30.6651C81.2981 37.1942 97.6735 51.2633 103.554 60.0336C96.7796 65.9671 99.2682 72.7531 98.7151 83.8136C98.1621 94.874 92.0096 95.427 80.0507 101.234C70.4835 105.879 65.3726 105.197 64.0131 104.275C71.309 97.0324 86.4844 81.6348 88.8185 77.9878C91.7361 73.4291 89.9126 67.5028 92.0096 63.2176C94.1066 58.9324 94.6536 55.1942 93.0125 54.1001C82.0716 44.5451 75.8727 34.8145 74.2619 31.1675Z" fill="#EDC39B"/>
<path d="M105.812 60.694C103.138 57.0057 83.2158 37.835 73.5339 28.7487C74.2831 28.3261 78.0516 25.8896 84.8288 21.1409C88.5632 21.6941 106.974 40.0984 113.309 51.0752C113.175 51.1713 111.528 53.0407 105.812 60.694Z" fill="#FDF6FE"/>
<path d="M49.02 59.289C46.9342 56.1602 47.5715 52.8287 48.1509 51.554C45.5435 53.7268 38.1494 59.4991 45.8669 65.1483C50.5451 68.5727 48.561 68.6868 45.8669 75.292C43.7116 80.5761 47.3978 86.9843 49.7154 88.5777L55.7991 80.8427C54.2347 80.553 51.3841 78.444 52.4965 72.3255C53.8871 64.6774 51.6273 63.2 49.02 59.289Z" fill="#EDC39B"/>
<path d="M39.8445 124.255C42.2379 119.417 39.2287 116.659 37.9193 115.358C35.682 113.563 30.3203 114.954 27.6956 119.26C24.6516 124.255 29.4905 129.484 32.5602 129.692C36.4328 129.955 37.8829 128.221 39.8445 124.255Z" fill="#F6E3CF"/>
<path d="M35.5153 114.5C32.029 113.912 28.9908 117.202 27.3667 119.457C32.3232 115.256 36.6242 114.769 38.7076 119.037C40.791 123.304 37.0021 128.044 34.8473 129.881C36.2605 129.141 39.5618 126.163 40.2617 123.363C41.1366 119.863 39.5923 115.188 35.5153 114.5Z" fill="#A7774F"/>
<path fill-rule="evenodd" clip-rule="evenodd" d="M100.367 80.3307C100.409 81.8164 100.45 83.2905 100.45 84.7391C100.45 89.5346 96.6663 93.4215 92.1976 96.4426C87.6661 99.5061 82.0793 101.914 77.8308 103.664C70.8765 106.527 64.8223 106.277 62.8823 105.695L64.2374 103.781C65.6308 104.199 70.4236 104.551 77.0693 101.814C81.3208 100.064 86.734 97.7221 91.0775 94.7857C95.4838 91.8068 98.4501 88.4437 98.4501 84.7391C98.4501 83.4068 98.411 81.9946 98.3708 80.5401C98.2863 77.4827 98.1967 74.2383 98.4535 71.1561C98.8364 66.5612 99.9958 62.0485 103.215 58.5609L104.685 59.9174C101.904 62.9297 100.814 66.9171 100.447 71.3222C100.199 74.297 100.284 77.3375 100.367 80.3307Z" fill="#74401B"/>
<path fill-rule="evenodd" clip-rule="evenodd" d="M104.868 40.1763L95.6739 50.9288L94.8284 49.9288L104.226 39.0495L104.868 40.1763Z" fill="#74401B"/>
<path fill-rule="evenodd" clip-rule="evenodd" d="M85.4749 18.9702L86.081 19.4636C89.694 22.4044 95.426 27.5082 100.913 33.2882C106.381 39.0493 111.685 45.5633 114.357 51.318L114.638 51.9231L114.187 52.4149C109.817 57.1824 107.435 60.655 106.818 61.7353L106.143 62.9167L105.217 61.9196C100.889 57.2583 94.1468 50.1419 87.9903 43.9439C84.9113 40.844 81.9858 37.9811 79.5852 35.7718C78.3843 34.6668 77.3226 33.7325 76.4434 33.0165C75.5454 32.2853 74.6902 31.7673 74.2975 31.571L74.6636 31.3117C70.7511 34.0758 64.7208 38.6035 58.9076 43.5155C52.8909 48.5995 47.1961 54.0217 44.2791 58.2979C43.4436 59.5557 43.7958 61.1783 45.0618 63.0234C46.2941 64.8194 48.1699 66.4646 49.5264 67.4222L50.2599 67.9399L49.8239 68.7248C48.6371 70.861 47.3092 74.5486 47.009 78.3062C46.7077 82.0787 47.4533 85.6856 50.1047 87.9834L50.9659 88.475L48.4158 92.4493C45.8751 96.5145 41.2134 102.387 30.6731 113.43C26.5897 117.707 25.3733 121.224 25.3623 123.793C25.3511 126.371 26.5494 128.138 27.5745 128.958L27.6177 128.993L27.6569 129.032C29.1658 130.541 33.9932 132.926 40.3731 128.422C43.9319 125.91 46.95 122.311 51.0498 117.423C51.6917 116.657 52.36 115.86 53.0611 115.031C58.2056 108.945 65.6821 101.746 76.4863 92.4493C65.7905 101.653 59.694 110.283 54.5885 116.322C53.8991 117.138 53.2368 117.928 52.5959 118.693C48.5227 123.554 45.3145 127.382 41.5265 130.056C34.35 135.122 28.4717 132.634 26.2821 130.485C24.8211 129.295 23.3485 126.976 23.3623 123.785C23.3762 120.554 24.9098 116.571 29.2264 112.049C39.1145 101.69 45.1701 93.8238 48.5482 89.2699C45.7364 86.3831 44.7132 81.9309 45.0154 78.147C45.3068 74.4988 46.4809 70.9349 47.6675 68.5335C46.2849 67.4629 44.6092 65.8987 43.4127 64.1549C42.0383 62.1519 41.0566 59.526 42.6177 57.1844L42.6234 57.1758C45.7074 52.6527 51.594 47.077 57.6168 41.9878C63.1881 37.2801 68.9524 32.9259 72.9042 30.1079L71.9273 29.1309L85.4749 18.9702ZM74.9721 29.3473L75.5491 29.9243C76.135 30.244 76.8758 30.7894 77.7063 31.4657C78.6291 32.2172 79.7237 33.1813 80.9395 34.3002C83.3722 36.5388 86.3216 39.4259 89.4093 42.5344C95.1812 48.3453 101.46 54.955 105.799 59.6088C106.915 57.9501 109.043 55.1143 112.257 51.5635C109.643 46.2566 104.704 40.1874 99.462 34.6651C94.3376 29.2667 88.9933 24.4629 85.422 21.5099L74.9721 29.3473Z" fill="#74401B"/>
<path d="M55.7989 80.8412C54.6999 82.5264 49.8748 87.4995 47.0403 91.3478C46.6237 93.0525 46.1394 95.5808 46.8232 94.7015C47.6781 93.6025 52.807 85.7564 55.7989 80.8412Z" fill="#74401B"/>
<defs>
<filter id="filter0_d_929_614321" x="0.0479736" y="0.319031" width="137.374" height="159.555" filterUnits="userSpaceOnUse" color-interpolation-filters="sRGB">
<feFlood flood-opacity="0" result="BackgroundImageFix"/>
<feColorMatrix in="SourceAlpha" type="matrix" values="0 0 0 0 0 0 0 0 0 0 0 0 0 0 0 0 0 0 127 0" result="hardAlpha"/>
<feOffset dy="4"/>
<feGaussianBlur stdDeviation="12"/>
<feComposite in2="hardAlpha" operator="out"/>
<feColorMatrix type="matrix" values="0 0 0 0 0 0 0 0 0 0 0 0 0 0 0 0 0 0 0.8 0"/>
<feBlend mode="normal" in2="BackgroundImageFix" result="effect1_dropShadow_929_614321"/>
<feBlend mode="normal" in="SourceGraphic" in2="effect1_dropShadow_929_614321" result="shape"/>
</filter>
</defs>
</svg>
