<svg width="24" height="25" viewBox="0 0 24 25" fill="none" xmlns="http://www.w3.org/2000/svg">
<path d="M11.982 20.6494C9.72546 20.6494 7.80309 19.8553 6.21487 18.2671C4.62664 16.6789 3.83252 14.757 3.83252 12.5015C3.83252 10.2459 4.62664 8.32257 6.21487 6.73137C7.80309 5.14015 9.72546 4.34454 11.982 4.34454C13.4226 4.34454 14.6869 4.63648 15.7751 5.22034C16.8633 5.80421 17.8054 6.60721 18.6015 7.62934V4.34454H20.1733V10.9157H13.5961V9.34999H17.7722C17.1349 8.36594 16.3325 7.57056 15.3651 6.96384C14.3977 6.35714 13.27 6.05379 11.982 6.05379C10.1803 6.05379 8.65546 6.67763 7.40759 7.92529C6.15973 9.17296 5.53579 10.6975 5.53579 12.4989C5.53579 14.3004 6.15974 15.8253 7.40764 17.0736C8.65554 18.322 10.1804 18.9462 11.9821 18.9462C13.3454 18.9462 14.5971 18.5553 15.7371 17.7736C16.8772 16.9919 17.6742 15.959 18.1282 14.675H19.8874C19.4001 16.4648 18.4253 17.9081 16.9631 19.0046C15.5008 20.1012 13.8405 20.6494 11.982 20.6494Z" fill="#FFEFBD"/>
</svg>
